<svg xmlns="http://www.w3.org/2000/svg" viewBox="0 0 512.002 512.002"><path d="M457.732 233.944l-27.921-87.283c-19.094-59.69-62.14-109.193-118.098-135.815-7.351-3.497-13.3-5.83-18.191-7.132-18.808-5.006-57.117-4.94-75.91.13-4.885 1.318-10.826 3.672-18.165 7.194-55.867 26.813-98.742 76.464-117.632 136.22l-27.622 87.378c-8.667 27.417-.334 57.422 21.228 76.444l73.701 65.02a82.748 82.748 0 00-28.796 62.765v65.637a7.5 7.5 0 007.5 7.5h256.351c4.143 0 7.5-3.357 7.5-7.5v-65.637a82.747 82.747 0 00-28.798-62.766l73.891-65.641c21.495-19.095 29.723-49.129 20.962-76.514z" fill="#484655"/><g fill="#35343f"><path d="M457.732 233.944l-27.921-87.283c-19.094-59.69-62.14-109.193-118.098-135.815-7.351-3.497-13.3-5.83-18.191-7.132C282.397.753 264.449-.433 247.752.141c10.382.386 20.189 1.574 27.123 3.573 4.516 1.302 10.008 3.635 16.794 7.132 51.659 26.622 91.397 76.125 109.025 135.815l25.776 87.283c8.089 27.386.491 57.42-19.354 76.516l-68.213 65.64c16.787 15.646 26.586 38.483 26.586 62.766v65.637c0 4.143-3.099 7.5-6.924 7.5h25.612c4.143 0 7.5-3.357 7.5-7.5v-65.637a82.747 82.747 0 00-28.798-62.766l73.891-65.641c21.495-19.096 29.723-49.13 20.962-76.515z"/><path d="M402.917 301.107L256 433.974 109.085 301.107a11.33 11.33 0 01-2.731-13.07l.065-.144c4.76-10.529 13.999-30.238 24.669-48.887 4.11-7.2 8.44-14.249 12.809-20.549 7.21-10.409 14.509-18.779 21.109-22.439 39.778-22.089 142.213-22.089 181.99 0 6.6 3.66 13.899 12.029 21.109 22.439 4.37 6.3 8.7 13.349 12.809 20.549 10.669 18.649 19.909 38.358 24.669 48.887l.065.144a11.334 11.334 0 01-2.731 13.07z"/></g><g fill="#fa9e3e"><path d="M298.098 363.879v-96.136h-84.196v96.28l-10.641.018a75.34 75.34 0 00-21.184 3.078L256 433.973l74.228-67.13a75.307 75.307 0 00-21.119-2.984l-11.011.02zM400.426 276.753c-5.047-10.658-11.911-24.464-19.512-37.748-2.941-5.152-5.995-10.221-9.095-14.999h-35.033v56.607h49.367a28.187 28.187 0 0014.273-3.86zM131.087 239.004c-7.601 13.284-14.465 27.09-19.512 37.748a28.166 28.166 0 0014.272 3.86h49.367v-56.607h-35.033c-3.099 4.779-6.153 9.849-9.094 14.999z"/></g><path d="M346.995 196.017c-39.778-22.089-142.212-22.089-181.99 0-6.6 3.66-13.899 12.029-21.109 22.439v12.239c0 17.939 4.21 34.888 11.699 49.917 18.359 36.858 56.427 62.187 100.405 62.187s82.046-25.329 100.405-62.187c7.49-15.029 11.699-31.978 11.699-49.917v-12.239c-7.209-10.41-14.509-18.78-21.109-22.439z" fill="#f0eeee"/><g fill="#d9d4d4"><path d="M346.995 196.017c-39.778-22.089-142.212-22.089-181.99 0-4.378 2.428-9.065 6.937-13.828 12.73 55.134-9.646 136.739-20.973 209.534 62.045 4.771-12.449 7.394-25.963 7.394-40.096v-12.239c-7.21-10.411-14.51-18.781-21.11-22.44z"/><path d="M346.995 196.017a65.771 65.771 0 00-2.22-1.172v47.512c0 53.532-41.88 97.276-94.662 100.273.329.017.656.039.985.053a110.301 110.301 0 004.902.117h.011a113.332 113.332 0 004.65-.104c1.003-.041 2.002-.095 2.998-.162.231-.015.463-.027.694-.044a113.02 113.02 0 003.563-.321c.286-.03.57-.065.855-.098.206-.023.41-.053.616-.078.751-.089 1.501-.18 2.247-.284.294-.041.589-.08.882-.124.463-.068.922-.152 1.383-.225.71-.114 1.422-.22 2.128-.347.154-.028.307-.06.461-.088.563-.104 1.121-.223 1.681-.336.462-.093.927-.179 1.387-.277a111.677 111.677 0 004.136-.963c.072-.018.144-.034.216-.053 1.148-.294 2.288-.611 3.422-.94.271-.079.54-.16.81-.241a110.83 110.83 0 002.816-.882c.208-.068.418-.134.626-.203.196-.066.388-.139.583-.206.918-.313 1.833-.629 2.74-.965.192-.071.383-.146.574-.218a109.77 109.77 0 002.791-1.094c.241-.098.482-.195.722-.295 1.094-.455 2.181-.922 3.257-1.41l.025-.012c.461-.209.913-.434 1.37-.65.589-.277 1.181-.55 1.765-.837a108.75 108.75 0 003.579-1.839c.079-.042.159-.083.238-.126 1.04-.562 2.069-1.143 3.089-1.736.191-.111.381-.225.571-.338.868-.512 1.729-1.036 2.583-1.571.17-.106.341-.211.51-.319.999-.634 1.987-1.281 2.964-1.945l.289-.2c.101-.069.199-.142.299-.211.772-.532 1.539-1.071 2.297-1.622.191-.139.383-.278.573-.418l.006-.005a112.37 112.37 0 005.522-4.338c.177-.148.352-.297.527-.446.805-.683 1.602-1.375 2.387-2.08.091-.082.184-.161.274-.243.203-.183.398-.375.6-.56.671-.615 1.341-1.231 1.997-1.862l.38-.371c.488-.474.965-.96 1.445-1.443.243-.245.492-.484.733-.732.144-.147.289-.294.432-.443.552-.572 1.09-1.157 1.63-1.741.268-.288.543-.57.807-.862l.074-.083a111.5 111.5 0 001.975-2.258c.083-.097.17-.191.253-.289l.443-.524.011-.013a112.104 112.104 0 004.35-5.521l.012-.016c.124-.168.246-.337.369-.506.344-.472.677-.953 1.014-1.43.267-.379.541-.752.804-1.135.085-.124.172-.245.256-.369.673-.988 1.332-1.987 1.974-2.997.069-.108.136-.218.204-.327a112.005 112.005 0 001.985-3.268 111.807 111.807 0 003.397-6.267l.014-.028a106.492 106.492 0 001.19-2.455c.035-.074.072-.147.106-.221.11-.235.221-.47.33-.706.33-.718.652-1.441.967-2.167.085-.196.173-.391.257-.587a112.457 112.457 0 002.203-5.559l.055-.145.08-.226c.313-.867.616-1.738.908-2.614.079-.236.153-.474.23-.71.236-.723.466-1.449.688-2.178.085-.28.168-.562.251-.843.165-.559.322-1.121.479-1.684.041-.148.086-.295.126-.444l.227-.837c.199-.751.389-1.505.573-2.262.056-.231.115-.462.169-.694.22-.933.429-1.87.626-2.812l.034-.158c.029-.138.052-.278.08-.416.388-1.908.73-3.833 1.02-5.776l.013-.079.058-.411c.057-.393.104-.789.157-1.183.067-.502.139-1.003.199-1.507.026-.214.049-.43.074-.645a110.41 110.41 0 00.319-3.197c.025-.297.043-.596.066-.893.045-.58.092-1.16.128-1.743.011-.176.023-.351.033-.527.043-.756.072-1.515.1-2.274.01-.279.029-.556.037-.836l.002-.045c.032-1.11.049-2.225.049-3.343V218.45c-7.215-10.404-14.515-18.774-21.115-22.433z"/></g><g fill="#19303f"><path d="M256 325.51a7.5 7.5 0 01-7.5-7.5v-9.999a7.5 7.5 0 017.5-7.5c4.143 0 7.5 3.357 7.5 7.5v9.999c0 4.143-3.357 7.5-7.5 7.5zM280.943 297.337a7.5 7.5 0 01-4.052-1.188L256 282.736l-20.89 13.412a7.497 7.497 0 01-6.651.725l-26.556-9.808a7.5 7.5 0 015.196-14.071l23.05 8.514 21.797-13.995a7.502 7.502 0 018.104-.001l21.798 13.996 23.05-8.514a7.499 7.499 0 019.633 4.437 7.499 7.499 0 01-4.437 9.634l-26.556 9.808c-.84.31-1.719.464-2.595.464zM337.496 221.848a7.481 7.481 0 01-5.304-2.196c-10.858-10.86-28.531-10.86-39.391 0a7.5 7.5 0 11-10.606-10.606c16.71-16.708 43.895-16.708 60.604 0a7.5 7.5 0 01-5.303 12.802zM224.502 221.848a7.477 7.477 0 01-5.303-2.196c-10.859-10.86-28.531-10.86-39.392 0a7.498 7.498 0 01-10.605-.001 7.498 7.498 0 010-10.605c16.708-16.708 43.895-16.708 60.603 0a7.498 7.498 0 010 10.605 7.472 7.472 0 01-5.303 2.197z"/></g><path d="M422.216 405.954c-.024-13.637-11.124-24.715-24.757-24.715h-.043l-138.81.238a24.597 24.597 0 00-17.493 7.282c-4.668 4.684-7.233 10.905-7.222 17.518l.169 98.236a7.5 7.5 0 007.5 7.488h.013l173.325-.298a7.504 7.504 0 007.488-7.513l-.17-98.236z" fill="#f0eeee"/><path d="M422.216 405.954c-.024-13.637-11.124-24.715-24.757-24.715h-.043l-23.058.04c12.998.712 23.366 11.497 23.389 24.675l.169 98.236a7.504 7.504 0 01-7.488 7.513l-149.636.257c.254.026.51.041.768.041h.013l173.325-.298a7.504 7.504 0 007.488-7.513l-.17-98.236z" fill="#d9d4d4"/><path d="M322.187 474.022a7.476 7.476 0 01-5.304-2.197 7.497 7.497 0 01.001-10.605l7.1-7.1h-9.796a7.499 7.499 0 01-5.304-12.804l19.903-19.903a7.5 7.5 0 1110.607 10.606l-7.102 7.101h9.797a7.499 7.499 0 015.303 12.804l-19.903 19.902a7.473 7.473 0 01-5.302 2.196z" fill="#484655"/></svg>