<svg version="1.2" baseProfile="tiny" xmlns="http://www.w3.org/2000/svg" viewBox="0 0 512 512"><path fill="#A1DADB" d="M91.313 39.591a26.304 26.304 0 00-3.434 6.788l-17.606 83.778a26.304 26.304 0 00.608 18.346l27.137 54.741 91.199-92.68L128.139 9.448c-2.271-3.76-7.56-4.19-10.409-.847L91.313 39.59zM420.687 39.591a26.304 26.304 0 013.434 6.788l17.606 83.778a26.304 26.304 0 01-.608 18.346l-27.137 54.741-91.199-92.68L383.861 9.448c2.271-3.76 7.56-4.19 10.409-.847l26.417 30.991z"/><path fill="#047F7C" stroke="#03514D" stroke-width="4" stroke-miterlimit="10" d="M256 506.337c31.788 0 62.105-6.058 90.079-16.861 9.083-3.508 14.326-13.043 12.416-22.591l-15.97-79.853-41.354 46.905c-7.175 8.136-16.341 14.204-26.572 17.587a60.176 60.176 0 01-37.814 0c-10.23-3.383-19.397-9.45-26.571-17.587l-40.919-46.411-15.818 79.361c-1.903 9.544 3.34 19.071 12.417 22.578 27.982 10.81 58.308 16.872 90.106 16.872z"/><path fill="#047F7C" d="M133.366 225.23l61.693 37.015a27.903 27.903 0 0113.546 23.926c0 8.725 7.073 15.799 15.799 15.799h63.192c8.726 0 15.799-7.074 15.799-15.799a27.903 27.903 0 0113.546-23.926l61.693-37.015a15.795 15.795 0 018.127-2.251h27.093l.128-19.736-58.417-59.365 39.75-111.258c1.137-3.18 5.116-4.22 7.664-2.004l21.82 18.983-.677-3.22a26.302 26.302 0 00-3.435-6.788L394.27 8.599c-2.85-3.344-8.138-2.913-10.41.848l-61.076 101.117H189.22c-.005 0-61.082-101.117-61.082-101.117-2.271-3.76-7.558-4.192-10.409-.848L91.313 39.591a26.3 26.3 0 00-3.435 6.788l-.677 3.22 21.82-18.983c2.548-2.216 6.527-1.176 7.663 2.004l39.647 111.368-58.313 59.255.009 19.736h27.212c2.863 0 5.672.778 8.127 2.251z"/><path fill="#A1DADB" d="M105.845 314.916l52.557 60.255 51.886 58.85a60.746 60.746 0 0026.497 17.503 60.186 60.186 0 0019.215 3.02V301.97h-31.596c-8.726 0-15.799-7.074-15.799-15.799a27.903 27.903 0 00-13.546-23.926l-61.693-37.015a15.795 15.795 0 00-8.127-2.251H98.027l.033 71.182a31.59 31.59 0 007.785 20.755zM378.634 225.23l-61.693 37.015a27.903 27.903 0 00-13.546 23.926c0 8.725-7.073 15.799-15.799 15.799H256v152.575a60.166 60.166 0 0018.6-3.021 60.743 60.743 0 0026.497-17.503l51.885-58.85 52.628-60.336a31.597 31.597 0 007.786-20.566l.458-71.29h-27.093c-2.863 0-5.672.778-8.127 2.251z"/><path fill="#1CACAB" d="M413.982 203.243l-48.925-49.719-67.976 43.836a15.785 15.785 0 00-7.094 10.96l-2.273 15.24c-1.366 9.165-9.236 14.942-18.504 14.942h-26.42c-9.267 0-17.138-5.777-18.504-14.942l-2.273-15.24a15.785 15.785 0 00-7.094-10.96l-67.974-43.834-48.927 49.717.025 54.048h17.941c6.612 0 11.972 5.36 11.972 11.971v4.381c0 4.546 1.96 8.872 5.38 11.869l52.456 45.976c3.42 2.997 7.094 7.668 7.094 12.214v70.582l17.402 19.737a60.746 60.746 0 0026.497 17.503 60.217 60.217 0 0037.814 0 60.743 60.743 0 0026.498-17.503l18.017-20.435v-69.884c0-4.546 3.674-9.217 7.094-12.214l52.456-45.976a15.782 15.782 0 005.38-11.869v-4.38c0-6.612 5.36-11.972 11.972-11.972h17.618l.348-54.048z"/><path fill="none" stroke="#03514D" stroke-width="4" stroke-miterlimit="10" d="M441.727 130.157l-16.929-80.559h0l-.676-3.219a26.3 26.3 0 00-3.435-6.788L394.27 8.599c-2.85-3.344-8.138-2.913-10.41.848l-61.076 101.117H189.22c-.005 0-61.082-101.117-61.082-101.117-2.271-3.76-7.558-4.192-10.409-.848L91.313 39.591a26.3 26.3 0 00-3.435 6.788l-.677 3.22h.001l-16.93 80.558a26.304 26.304 0 00.609 18.346l27.137 54.741h0l.009 19.735.033 71.182a31.59 31.59 0 007.785 20.755l52.557 60.255 34.484 39.113v0l17.402 19.737a60.746 60.746 0 0026.497 17.503 60.217 60.217 0 0037.814 0 60.743 60.743 0 0026.498-17.503l18.017-20.435v0l33.868-38.415 52.628-60.336a31.597 31.597 0 007.786-20.566l.238-36.978h0l.348-54.047h0l27.137-54.74a26.304 26.304 0 00.608-18.347z"/></svg>