<svg height="512" width="512" xmlns="http://www.w3.org/2000/svg"><path d="M62.385 214.769H436V137c0-8.284-6.716-15-15-15H62.385C36.767 122 16 142.767 16 168.385c0 25.617 20.767 46.384 46.385 46.384z" fill="#6c3326"/><path d="M436 137v77.77H241V122h180c8.28 0 15 6.72 15 15z" fill="#54281b"/><path d="M451 212H61.115C36.199 212 16 191.801 16 166.885V452c0 33.137 26.863 60 60 60h375c8.284 0 15-6.716 15-15V227c0-8.284-6.716-15-15-15z" fill="#b55d49"/><path d="M466 227v270c0 8.28-6.72 15-15 15H241V212h210c8.28 0 15 6.72 15 15z" fill="#a14e3e"/><path d="M481 301H376a14.996 14.996 0 00-10.606 4.394l-45 45c-5.858 5.858-5.858 15.355 0 21.213l45 45A15 15 0 00376 421h105c8.284 0 15-6.716 15-15v-90c0-8.284-6.716-15-15-15z" fill="#54281b"/><path d="M241 0c-8.284 0-15 6.716-15 15v33c0 8.284 6.716 15 15 15s15-6.716 15-15V15c0-8.284-6.716-15-15-15z" fill="#fbbd43"/><path d="M256 15v33c0 8.28-6.72 15-15 15V0c8.28 0 15 6.72 15 15z" fill="#f19637"/><path d="M183.077 66.616l-25.279-21.212c-6.348-5.326-15.808-4.497-21.132 1.849-5.325 6.346-4.498 15.807 1.849 21.132l25.279 21.212c6.387 5.359 15.841 4.456 21.132-1.849 5.325-6.345 4.498-15.807-1.849-21.132z" fill="#fbbd43"/><path d="M345.334 47.253c-5.324-6.346-14.787-7.174-21.132-1.849l-25.279 21.212c-6.347 5.325-7.174 14.787-1.849 21.132 5.309 6.327 14.768 7.19 21.132 1.849l25.279-21.212c6.347-5.324 7.174-14.786 1.849-21.132z" fill="#f19637"/><path d="M181 361H91c-8.284 0-15 6.716-15 15v60c0 8.284 6.716 15 15 15h90c8.284 0 15-6.716 15-15v-60c0-8.284-6.716-15-15-15z" fill="#a14e3e"/></svg>