<svg version="1.2" baseProfile="tiny" xmlns="http://www.w3.org/2000/svg" viewBox="0 0 512 512"><g fill="#047F7C"><path d="M74.476 73.198c.83 0 1.2.368 1.2 1.107v3.877c0 .83-.37 1.2-1.2 1.2H38.108v26.4h33.045c.83 0 1.2.46 1.2 1.2v3.876c0 .74-.37 1.2-1.2 1.2H38.108v28.984c0 .83-.461 1.2-1.2 1.2H32.2c-.739 0-1.2-.37-1.2-1.2v-66.46c0-.923.461-1.384 1.385-1.384h42.09zM94.784 73.198c.74 0 1.2.368 1.2 1.107v66.737c0 .83-.46 1.2-1.2 1.2h-4.339c-.737 0-1.199-.37-1.199-1.2V74.305c0-.739.462-1.107 1.2-1.107h4.338zM122.108 78.182c0 2.862-1.477 4.43-4.246 4.43-2.862 0-4.431-1.568-4.431-4.43 0-2.77 1.569-4.246 4.43-4.246 2.77 0 4.247 1.477 4.247 4.246zm-2.123 14.123c.739 0 1.2.462 1.2 1.2v47.537c0 .83-.461 1.2-1.2 1.2h-4.338c-.83 0-1.2-.37-1.2-1.2V93.505c0-.738.37-1.2 1.2-1.2h4.338zM179.8 117.505c0 20.307-3.23 25.199-20.953 25.199-4.616 0-8.309-.092-12.646-.553v16.983c0 .74-.37 1.2-1.108 1.2h-4.339c-.83 0-1.2-.46-1.2-1.2V94.428c0-.923.37-1.2 1.292-1.384 8.493-1.108 12.278-1.2 18.647-1.2 17.076 0 20.307 5.076 20.307 25.66zM146.2 97.75v38.4c4.062.369 8.677.645 12.647.645 12.737 0 14.214-3.784 14.214-19.384 0-15.783-1.384-19.661-13.568-19.661H146.2zM226.23 92.49c.74.093 1.108.554 1.108 1.2v2.86c0 .831-.368 1.2-1.199 1.2h-16.8c-4.153 0-8.03 1.293-8.03 5.539v1.477c0 3.138 1.2 5.446 6.183 7.477l13.016 5.262c8.03 3.23 8.77 7.57 8.77 12.368v1.109c0 9.784-5.355 11.722-18.093 11.722-6.646 0-14.584-.553-16.06-.738-.925-.093-1.108-.554-1.108-1.109v-2.86c0-.831.368-1.2 1.107-1.2h16.246c8.585 0 11.26-1.108 11.26-5.815v-1.2c0-3.048-1.106-5.077-5.537-6.924l-13.846-5.538c-7.015-2.862-8.584-7.66-8.584-12.646v-2.031c0-9.969 9.138-10.8 17.26-10.8 3.6 0 9.507.093 14.308.646zM252.262 78.366c.924-.276 1.385.094 1.385 1.016v12.923h10.245c.74 0 1.2.462 1.2 1.2v3.23c0 .74-.46 1.109-1.2 1.109h-10.245v33.784c0 4.153 1.107 5.168 6 5.168h4.893c.922 0 1.292.278 1.292 1.107v3.139c0 .646-.37 1.016-1.109 1.2-1.568.37-4.337.462-4.983.462-6.37 0-12.831-.462-12.831-9.692V97.844h-5.169c-.83 0-1.2-.37-1.2-1.109v-3.23c0-.738.37-1.2 1.2-1.2h5.169V80.583c0-.646.37-1.016 1.015-1.2l4.338-1.017zM354.908 92.674c.738.277 1.108.555 1.108 1.292v2.678c0 .83-.462 1.2-1.2 1.107h-8.031c-5.445 0-8.123.83-8.123 5.261v38.03c0 .83-.37 1.2-1.2 1.2h-4.338c-.739 0-1.2-.37-1.2-1.2v-39.413c0-9.693 9.323-9.786 13.384-9.786 2.216 0 8.03.277 9.6.831zM376.322 78.366c.924-.276 1.386.094 1.386 1.016v12.923h10.246c.738 0 1.2.462 1.2 1.2v3.23c0 .74-.462 1.109-1.2 1.109h-10.246v33.784c0 4.153 1.107 5.168 5.999 5.168h4.893c.923 0 1.292.278 1.292 1.107v3.139c0 .646-.37 1.016-1.108 1.2-1.569.37-4.338.462-4.984.462-6.369 0-12.83-.462-12.83-9.692V97.844h-5.17c-.83 0-1.2-.37-1.2-1.109v-3.23c0-.738.37-1.2 1.2-1.2h5.17V80.583c0-.646.369-1.016 1.015-1.2l4.337-1.017zM441.306 115.567v2.676c0 1.57-.277 2.307-2.86 2.307H408.26c.277 12.831 2.584 16.246 13.384 16.246h14.492c.74 0 1.2.37 1.2 1.2v2.861c0 .646-.369 1.109-1.108 1.2-4.338.462-9.876.647-14.584.647-16.707 0-20.122-5.077-20.122-25.477 0-20.399 3.415-25.384 20.122-25.384 15.784 0 19.477 4.707 19.66 23.724zm-33.045-1.016h26.308c-.185-13.662-2.308-16.8-12.924-16.8-11.17 0-13.199 3.323-13.384 16.8zM479.893 92.674c.737.277 1.107.555 1.107 1.292v2.678c0 .83-.461 1.2-1.2 1.107h-8.031c-5.445 0-8.122.83-8.122 5.261v38.03c0 .83-.37 1.2-1.2 1.2h-4.338c-.74 0-1.2-.37-1.2-1.2v-39.413c0-9.693 9.322-9.786 13.383-9.786 2.216 0 8.03.277 9.6.831zM314.081 106.151v32.307c0 .74.093 1.753-1.662 2.4-2.86 1.108-11.445 1.846-19.66 1.846-12.092 0-16.892-3.045-16.892-14.584 0-7.851 3.09-11.73 9.23-13.084 1.8-.397 22.339-4.752 22.339-4.752v-3.117c0-6.923-4.616-9.416-13.662-9.416h-12.461c-.924 0-1.2-.276-1.2-1.2v-2.585c0-.922.276-1.107 1.107-1.292 5.076-.737 9.23-.83 12.554-.83 12.738 0 20.307 3.6 20.307 14.307zm-26.517 14.487c-3.436.807-5.05 3.041-5.05 7.482 0 6.83 3.045 8.77 11.721 8.77 2.862 0 9.323-.185 13.2-1.2V116.47s-18.808 3.917-19.871 4.167z"/></g><path fill="#03514D" d="M131 274h50v50h-50z"/><path fill="#025E57" d="M181 274h50v50h-50z"/><path fill="#047F7C" d="M231 274h50v50h-50z"/><path fill="#1CACAB" d="M281 274h50v50h-50z"/><path fill="#A1DADB" d="M331 274h50v50h-50z"/><path fill="#08252D" d="M131 374h50v50h-50z"/><path fill="#434D54" d="M181 374h50v50h-50z"/><path fill="#57646E" d="M231 374h50v50h-50z"/><path fill="#ABBAC3" d="M281 374h50v50h-50z"/><path fill="#FFF" d="M331.5 374.5h49v49h-49z"/><path fill="#ABBAC3" d="M380 375v48h-48v-48h48m1-1h-50v50h50v-50z"/><g fill="#4D4D4D"><path d="M141.501 333.852c.08 0 .13.04.13.13v.38c0 .09-.05.13-.13.13h-1.07v1.689c0 .09-.05.13-.13.13h-.439c-.08 0-.13-.04-.13-.13v-1.69h-1.73v1.69c0 .09-.04.13-.129.13h-.44c-.08 0-.12-.04-.12-.13v-1.69h-.979c-.09 0-.13-.04-.13-.13v-.38c0-.09.04-.13.13-.13h.98v-2.538h-.99c-.08 0-.12-.04-.12-.12v-.39c0-.08.04-.12.12-.12h.99v-1.728c0-.08.04-.12.12-.12h.439c.09 0 .13.04.13.12v1.729h1.73v-1.729c0-.08.05-.12.13-.12h.439c.08 0 .13.04.13.12v1.729h1.069c.08 0 .12.04.12.12v.39c0 .08-.04.12-.12.12h-1.07v2.538h1.07zm-1.769 0v-2.539h-1.73v2.539h1.73zM148.13 332.583c0 2.928-.519 3.777-2.688 3.777s-2.677-.85-2.677-3.777c0-2.929.508-3.798 2.677-3.798s2.689.87 2.689 3.798zm-4.607 0c0 2.408.37 3.107 1.92 3.107 1.559 0 1.93-.699 1.93-3.107 0-2.4-.371-3.129-1.93-3.129-1.55 0-1.92.73-1.92 3.129zM153.872 330.714v.2c0 .879-.34 1.469-.95 1.649.62.2.95.779.95 1.649v.17c0 1.619-.71 1.978-3.009 1.978-.38 0-.949-.02-1.449-.06-.07-.009-.12-.009-.12-.049v-.49c0-.05.05-.07.13-.07h1.51c1.659 0 2.169-.25 2.169-1.33v-.109c-.011-1-.37-1.35-1.49-1.35h-1.829c-.09 0-.11-.03-.11-.1v-.46c0-.07.02-.099.11-.099h1.82c1.119 0 1.499-.34 1.499-1.37v-.18c0-1.079-.6-1.239-2.24-1.239h-1.44c-.078 0-.13-.02-.13-.07v-.469c0-.05.052-.07.121-.07.5-.05 1.07-.06 1.45-.06 2.258 0 3.008.31 3.008 1.929zM159.661 328.835c.08 0 .13.04.13.12v.419c0 .09-.05.13-.13.13h-3.557l-.16 2.4c.37-.011.779-.021 1.01-.021 2.258 0 2.987.4 3.007 2.129v.24c-.02 1.709-.75 2.108-3.008 2.108-.38 0-1.17-.01-1.669-.04-.08 0-.12-.04-.12-.08v-.47c0-.06.04-.08.12-.08h1.779c1.55 0 2.128-.279 2.128-1.428v-.23c-.01-1.17-.569-1.48-2.128-1.48h-1.779c-.08 0-.12-.03-.12-.08v-.479l.18-3.018c0-.09.05-.14.15-.14h4.167zM164.382 335.64c.08 0 .13.04.13.12v.42c0 .09-.05.13-.13.13h-3.258c-.08 0-.12-.04-.12-.13v-.42c0-.08.04-.12.12-.12h1.29v-5.616c0-.48-.26-.57-.88-.57h-.55c-.09.01-.14-.04-.14-.12v-.33c0-.07.04-.1.12-.129.18-.06.49-.09.73-.09.479 0 1.479.01 1.479 1.059v5.797h1.209zM166.934 328.835c.109 0 .119.06.1.15l-1.41 4.687h2.679v-2.099c0-.07.029-.13.09-.15l.52-.21c.099-.04.16-.02.16.08v2.379h1.309c.1 0 .14.04.14.12v.42c0 .1-.04.13-.14.13h-1.31v1.839c0 .09-.05.13-.13.13h-.51c-.08 0-.13-.04-.13-.13v-1.84h-3.377c-.08 0-.13-.03-.13-.13v-.219c0-.1.03-.2.07-.33l1.408-4.747c.03-.07.07-.08.16-.08h.5zM175.572 328.835c.09 0 .13.05.13.13v7.086c0 .1-.04.14-.14.15-.92.14-1.34.16-2.029.16-1.848 0-2.199-.54-2.199-2.76 0-2.207.35-2.747 2.27-2.747.56 0 1.018.019 1.378.06v-1.95c0-.08.04-.129.12-.129h.47zm-1.968 2.658c-1.38 0-1.54.41-1.54 2.099 0 1.709.16 2.129 1.47 2.129.429 0 .918-.03 1.448-.1v-4.128h-1.378z"/></g><g fill="#4D4D4D"><path d="M191.035 333.852c.08 0 .13.04.13.13v.38c0 .09-.05.13-.13.13h-1.07v1.689c0 .09-.049.13-.13.13h-.439c-.08 0-.13-.04-.13-.13v-1.69h-1.729v1.69c0 .09-.04.13-.13.13h-.44c-.08 0-.12-.04-.12-.13v-1.69h-.979c-.09 0-.13-.04-.13-.13v-.38c0-.09.04-.13.13-.13h.98v-2.538h-.99c-.08 0-.12-.04-.12-.12v-.39c0-.08.04-.12.12-.12h.99v-1.728c0-.08.04-.12.12-.12h.44c.09 0 .13.04.13.12v1.729h1.729v-1.729c0-.08.05-.12.13-.12h.439c.08 0 .13.04.13.12v1.729h1.07c.08 0 .12.04.12.12v.39c0 .08-.04.12-.12.12h-1.07v2.538h1.07zm-1.768 0v-2.539h-1.73v2.539h1.73zM197.665 332.583c0 2.928-.52 3.777-2.688 3.777s-2.678-.85-2.678-3.777c0-2.929.509-3.798 2.678-3.798s2.688.87 2.688 3.798zm-4.607 0c0 2.408.37 3.107 1.919 3.107 1.56 0 1.93-.699 1.93-3.107 0-2.4-.37-3.129-1.93-3.129-1.55 0-1.92.73-1.92 3.129zM203.536 330.483v.61c0 .68-.11 1.27-.87 1.65l-2.389 1.309c-.609.34-.789.6-.789 1.119v.47h4.008c.06 0 .07.01.07.05v.56c0 .05-.02.06-.06.06h-4.537c-.2 0-.25-.11-.25-.28v-.86c0-.79.279-1.219 1.199-1.71l2.408-1.318c.39-.22.44-.59.44-1.05v-.61c0-.919-.859-1.029-1.819-1.029h-1.779c-.05 0-.07-.01-.07-.06v-.43c0-.049.02-.07.06-.08.75-.07 1.1-.099 1.79-.099 1.359 0 2.588.17 2.588 1.698zM209.266 328.835c.08 0 .13.04.13.12v.419c0 .09-.05.13-.13.13h-3.558l-.16 2.4c.37-.011.78-.021 1.01-.021 2.258 0 2.988.4 3.007 2.129v.24c-.02 1.709-.749 2.108-3.007 2.108-.38 0-1.17-.01-1.67-.04-.08 0-.12-.04-.12-.08v-.47c0-.06.04-.08.12-.08h1.779c1.55 0 2.129-.279 2.129-1.428v-.23c-.01-1.17-.57-1.48-2.129-1.48h-1.778c-.08 0-.12-.03-.12-.08v-.479l.18-3.018c0-.09.049-.14.149-.14h4.168zM214.976 333.422v.29c0 .17-.03.25-.31.25h-3.269c.03 1.39.28 1.759 1.45 1.759h1.569c.08 0 .13.04.13.13v.31c0 .07-.04.12-.12.13-.47.05-1.07.07-1.58.07-1.808 0-2.178-.55-2.178-2.76 0-2.207.37-2.747 2.179-2.747 1.71 0 2.11.51 2.129 2.568zm-3.579-.11h2.85c-.02-1.479-.25-1.819-1.4-1.819-1.21 0-1.429.36-1.45 1.82zM220.565 328.835c.08 0 .13.04.13.12v.419c0 .09-.05.13-.13.13h-3.557l-.16 2.4c.37-.011.779-.021 1.01-.021 2.258 0 2.988.4 3.007 2.129v.24c-.02 1.709-.749 2.108-3.008 2.108-.38 0-1.17-.01-1.669-.04-.08 0-.12-.04-.12-.08v-.47c0-.06.04-.08.12-.08h1.779c1.55 0 2.129-.279 2.129-1.428v-.23c-.01-1.17-.57-1.48-2.13-1.48h-1.778c-.08 0-.12-.03-.12-.08v-.479l.18-3.018c0-.09.05-.14.15-.14h4.167zM226.556 328.835c.08 0 .13.03.13.12v.32c0 .08-.03.13-.06.189l-3.408 6.757c-.03.06-.08.09-.15.09h-.58c-.11 0-.13-.07-.09-.15l3.348-6.657h-3.998c-.1 0-.14-.04-.14-.12v-.429c0-.09.04-.12.14-.12h4.808z"/></g><g fill="#4D4D4D"><path d="M242.756 333.852c.08 0 .13.04.13.13v.38c0 .09-.05.13-.13.13h-1.07v1.689c0 .09-.05.13-.13.13h-.439c-.08 0-.13-.04-.13-.13v-1.69h-1.73v1.69c0 .09-.04.13-.13.13h-.439c-.08 0-.12-.04-.12-.13v-1.69h-.98c-.089 0-.129-.04-.129-.13v-.38c0-.09.04-.13.13-.13h.98v-2.538h-.99c-.08 0-.12-.04-.12-.12v-.39c0-.08.04-.12.12-.12h.99v-1.728c0-.08.04-.12.12-.12h.439c.09 0 .13.04.13.12v1.729h1.73v-1.729c0-.08.05-.12.13-.12h.439c.08 0 .13.04.13.12v1.729h1.069c.08 0 .12.04.12.12v.39c0 .08-.04.12-.12.12h-1.07v2.538h1.07zm-1.769 0v-2.539h-1.73v2.539h1.73zM249.386 332.583c0 2.928-.52 3.777-2.689 3.777s-2.677-.85-2.677-3.777c0-2.929.508-3.798 2.677-3.798s2.689.87 2.689 3.798zm-4.608 0c0 2.408.37 3.107 1.92 3.107 1.559 0 1.929-.699 1.929-3.107 0-2.4-.37-3.129-1.93-3.129-1.549 0-1.919.73-1.919 3.129zM252.479 328.835c.109 0 .119.06.1.15l-1.41 4.687h2.679v-2.099c0-.07.029-.13.09-.15l.519-.21c.1-.04.16-.02.16.08v2.379h1.31c.1 0 .14.04.14.12v.42c0 .1-.04.13-.14.13h-1.31v1.839c0 .09-.05.13-.13.13h-.51c-.08 0-.13-.04-.13-.13v-1.84h-3.377c-.08 0-.13-.03-.13-.13v-.219c0-.1.03-.2.07-.33l1.408-4.747c.03-.07.07-.08.16-.08h.5zM261.117 328.835c.08 0 .13.03.13.12v.32c0 .08-.03.13-.06.189l-3.408 6.757c-.03.06-.08.09-.15.09h-.58c-.11 0-.13-.07-.09-.15l3.349-6.657h-3.998c-.1 0-.14-.04-.14-.12v-.429c0-.09.04-.12.14-.12h4.807zM264.778 328.854c.07.01.11.05.11.13v.31c0 .08-.05.13-.13.13h-.57c-.5 0-.88.02-.88.56v.92h1.35c.09 0 .13.05.11.15l-.06.34c-.02.08-.06.109-.14.109h-1.26v4.678c0 .09-.04.13-.13.13h-.469c-.08 0-.12-.04-.12-.13v-4.678h-.75c-.08 0-.129-.04-.129-.12v-.35c0-.08.05-.13.13-.13h.749v-1.06c0-1.048.93-1.069 1.35-1.069.279 0 .619.04.84.08zM270.087 328.835c.08 0 .13.03.13.12v.32c0 .08-.03.13-.06.189l-3.408 6.757c-.03.06-.08.09-.15.09h-.58c-.11 0-.13-.07-.09-.15l3.348-6.657h-3.998c-.1 0-.14-.04-.14-.12v-.429c0-.09.04-.12.14-.12h4.808zM274.707 330.924c.08.01.12.06.12.13v.31c0 .09-.05.13-.13.13h-1.47c-1.298 0-1.498.42-1.498 2.108 0 1.689.2 2.119 1.499 2.119h1.47c.08 0 .13.04.13.13v.31c0 .07-.04.12-.121.13-.47.05-1.1.07-1.48.07-1.838 0-2.218-.55-2.218-2.76 0-2.198.38-2.747 2.219-2.747.38 0 1.01.01 1.479.07z"/></g><g fill="#4D4D4D"><path d="M293.716 333.852c.08 0 .13.04.13.13v.38c0 .09-.05.13-.13.13h-1.07v1.689c0 .09-.05.13-.13.13h-.439c-.08 0-.13-.04-.13-.13v-1.69h-1.73v1.69c0 .09-.04.13-.13.13h-.439c-.08 0-.12-.04-.12-.13v-1.69h-.98c-.089 0-.13-.04-.13-.13v-.38c0-.09.041-.13.13-.13h.98v-2.538h-.989c-.08 0-.12-.04-.12-.12v-.39c0-.08.04-.12.12-.12h.99v-1.728c0-.08.04-.12.12-.12h.439c.09 0 .13.04.13.12v1.729h1.73v-1.729c0-.08.05-.12.13-.12h.439c.08 0 .13.04.13.12v1.729h1.069c.08 0 .12.04.12.12v.39c0 .08-.04.12-.12.12h-1.07v2.538h1.07zm-1.769 0v-2.539h-1.73v2.539h1.73zM298.247 335.64c.08 0 .13.04.13.12v.42c0 .09-.05.13-.13.13h-3.258c-.08 0-.12-.04-.12-.13v-.42c0-.08.04-.12.12-.12h1.29v-5.616c0-.48-.26-.57-.88-.57h-.55c-.09.01-.14-.04-.14-.12v-.33c0-.07.04-.1.12-.129.18-.06.49-.09.73-.09.48 0 1.48.01 1.48 1.059v5.797h1.208zM302.837 330.924c.08.01.12.06.12.13v.31c0 .09-.05.13-.13.13h-1.47c-1.298 0-1.499.42-1.499 2.108 0 1.689.2 2.119 1.5 2.119h1.47c.08 0 .129.04.129.13v.31c0 .07-.04.12-.12.13-.47.05-1.1.07-1.48.07-1.838 0-2.218-.55-2.218-2.76 0-2.198.38-2.747 2.218-2.747.38 0 1.01.01 1.48.07zM307.847 332.402v3.498c0 .08.01.19-.18.26-.31.12-1.24.2-2.129.2-1.31 0-1.829-.33-1.829-1.579 0-1.1.56-1.48 1.669-1.48h1.749v-.788c0-.75-.5-1.02-1.479-1.02h-1.35c-.099 0-.13-.03-.13-.13v-.28c0-.1.031-.12.121-.14.55-.08 1-.09 1.36-.09 1.378 0 2.198.39 2.198 1.55zm-2.47 1.53c-.648 0-.948.22-.948.85 0 .739.33.948 1.27.948.309 0 1.008-.02 1.428-.13v-1.668h-1.75zM312.827 330.924c.08.01.12.06.12.13v.31c0 .09-.05.13-.13.13h-1.47c-1.298 0-1.498.42-1.498 2.108 0 1.689.2 2.119 1.499 2.119h1.47c.08 0 .13.04.13.13v.31c0 .07-.04.12-.12.13-.47.05-1.1.07-1.48.07-1.84 0-2.22-.55-2.22-2.76 0-2.198.38-2.747 2.22-2.747.38 0 1.01.01 1.48.07zM317.837 332.402v3.498c0 .08.01.19-.18.26-.31.12-1.239.2-2.129.2-1.31 0-1.829-.33-1.829-1.579 0-1.1.56-1.48 1.67-1.48h1.748v-.788c0-.75-.499-1.02-1.478-1.02h-1.35c-.1 0-.13-.03-.13-.13v-.28c0-.1.03-.12.12-.14.55-.08 1-.09 1.36-.09 1.379 0 2.198.39 2.198 1.55zm-2.469 1.53c-.65 0-.95.22-.95.85 0 .739.331.948 1.27.948.31 0 1.01-.02 1.43-.13v-1.668h-1.75zM319.889 328.835c.08 0 .13.05.13.13v1.948c.35-.04.81-.06 1.38-.06 1.909 0 2.258.54 2.258 2.749s-.34 2.758-2.199 2.758c-.69 0-1.11-.02-2.028-.16-.1-.01-.14-.05-.14-.15v-7.085c0-.08.05-.13.129-.13h.47zm.13 2.658v4.128c.52.07 1.01.1 1.439.1 1.32 0 1.48-.43 1.48-2.13 0-1.688-.17-2.098-1.54-2.098h-1.38z"/></g><g fill="#4D4D4D"><path d="M342.786 333.852c.08 0 .13.04.13.13v.38c0 .09-.05.13-.13.13h-1.07v1.689c0 .09-.049.13-.13.13h-.439c-.08 0-.13-.04-.13-.13v-1.69h-1.729v1.69c0 .09-.04.13-.13.13h-.44c-.08 0-.12-.04-.12-.13v-1.69h-.979c-.09 0-.13-.04-.13-.13v-.38c0-.09.04-.13.13-.13h.98v-2.538h-.99c-.08 0-.12-.04-.12-.12v-.39c0-.08.04-.12.12-.12h.99v-1.728c0-.08.04-.12.12-.12h.44c.089 0 .13.04.13.12v1.729h1.729v-1.729c0-.08.05-.12.13-.12h.439c.08 0 .13.04.13.12v1.729h1.07c.08 0 .12.04.12.12v.39c0 .08-.04.12-.12.12h-1.07v2.538h1.07zm-1.768 0v-2.539h-1.73v2.539h1.73zM347.957 332.402v3.498c0 .08.01.19-.18.26-.31.12-1.239.2-2.129.2-1.31 0-1.829-.33-1.829-1.579 0-1.1.56-1.48 1.67-1.48h1.748v-.788c0-.75-.499-1.02-1.478-1.02h-1.35c-.1 0-.13-.03-.13-.13v-.28c0-.1.03-.12.12-.14.55-.08 1-.09 1.36-.09 1.379 0 2.198.39 2.198 1.55zm-2.469 1.53c-.65 0-.949.22-.949.85 0 .739.33.948 1.27.948.31 0 1.008-.02 1.428-.13v-1.668h-1.749zM352.558 335.64c.08 0 .13.04.13.12v.42c0 .09-.05.13-.13.13H349.3c-.08 0-.12-.04-.12-.13v-.42c0-.08.04-.12.12-.12h1.289v-5.616c0-.48-.26-.57-.88-.57h-.55c-.09.01-.14-.04-.14-.12v-.33c0-.07.04-.1.12-.129.18-.06.49-.09.73-.09.48 0 1.48.01 1.48 1.059v5.797h1.209zM357.688 328.835c.09 0 .13.05.13.13v7.086c0 .1-.04.14-.14.15-.92.14-1.34.16-2.03.16-1.848 0-2.199-.54-2.199-2.76 0-2.207.35-2.747 2.27-2.747.56 0 1.018.019 1.379.06v-1.95c0-.08.04-.129.12-.129h.47zm-1.97 2.658c-1.38 0-1.54.41-1.54 2.099 0 1.709.16 2.129 1.47 2.129.43 0 .92-.03 1.45-.1v-4.128h-1.38zM363.087 332.402v3.498c0 .08.01.19-.18.26-.31.12-1.239.2-2.129.2-1.31 0-1.829-.33-1.829-1.579 0-1.1.56-1.48 1.67-1.48h1.748v-.788c0-.75-.499-1.02-1.478-1.02h-1.35c-.1 0-.13-.03-.13-.13v-.28c0-.1.03-.12.12-.14.55-.08 1-.09 1.36-.09 1.379 0 2.198.39 2.198 1.55zm-2.469 1.53c-.65 0-.95.22-.95.85 0 .739.331.948 1.27.948.31 0 1.01-.02 1.43-.13v-1.668h-1.75zM368.607 328.835c.09 0 .13.05.13.13v7.086c0 .1-.04.14-.14.15-.92.14-1.34.16-2.029.16-1.848 0-2.199-.54-2.199-2.76 0-2.207.35-2.747 2.27-2.747.56 0 1.018.019 1.379.06v-1.95c0-.08.04-.129.12-.129h.47zm-1.968 2.658c-1.38 0-1.54.41-1.54 2.099 0 1.709.16 2.129 1.47 2.129.429 0 .918-.03 1.449-.1v-4.128h-1.38zM370.818 328.835c.08 0 .13.05.13.13v1.948c.35-.04.81-.06 1.38-.06 1.91 0 2.259.54 2.259 2.749s-.34 2.758-2.2 2.758c-.689 0-1.109-.02-2.028-.16-.1-.01-.14-.05-.14-.15v-7.085c0-.08.05-.13.13-.13h.47zm.13 2.658v4.128c.52.07 1.01.1 1.44.1 1.319 0 1.48-.43 1.48-2.13 0-1.688-.17-2.098-1.54-2.098h-1.38z"/></g><g fill="#4D4D4D"><path d="M140.535 433.852c.08 0 .13.04.13.13v.38c0 .09-.05.13-.13.13h-1.07v1.689c0 .09-.049.13-.13.13h-.439c-.08 0-.13-.04-.13-.13v-1.69h-1.729v1.69c0 .09-.04.13-.13.13h-.44c-.08 0-.12-.04-.12-.13v-1.69h-.979c-.09 0-.13-.04-.13-.13v-.38c0-.09.04-.13.13-.13h.98v-2.538h-.99c-.08 0-.12-.04-.12-.12v-.39c0-.08.04-.12.12-.12h.99v-1.728c0-.08.04-.12.12-.12h.44c.09 0 .13.04.13.12v1.729h1.729v-1.729c0-.08.05-.12.13-.12h.439c.08 0 .13.04.13.12v1.729h1.07c.08 0 .12.04.12.12v.39c0 .08-.04.12-.12.12h-1.07v2.538h1.07zm-1.768 0v-2.539h-1.73v2.539h1.73zM147.165 432.583c0 2.928-.52 3.777-2.688 3.777s-2.678-.85-2.678-3.777c0-2.929.509-3.798 2.678-3.798s2.688.87 2.688 3.798zm-4.607 0c0 2.408.37 3.107 1.919 3.107 1.56 0 1.93-.699 1.93-3.107 0-2.4-.37-3.129-1.93-3.129-1.55 0-1.92.73-1.92 3.129zM151.027 428.785c1.58 0 2.309.65 2.309 2.049 0 .879-.28 1.419-.93 1.799.78.34 1.11.86 1.11 1.709 0 1.369-.82 2.018-2.5 2.018h-.17c-1.698 0-2.497-.65-2.497-2.058 0-.71.42-1.41 1.14-1.849-.59-.31-.93-.85-.93-1.619 0-1.4.739-2.049 2.318-2.049h.15zm-.82 3.968c-.789.41-1.099.91-1.099 1.579 0 .919.58 1.358 1.739 1.358h.17c1.19 0 1.739-.47 1.739-1.298 0-.82-.54-1.11-1.19-1.27l-1.359-.37zm.67-3.299c-1.02 0-1.549.43-1.549 1.28 0 .809.5 1.139 1.1 1.34l1.249.309c.63-.37.9-.86.9-1.549 0-.94-.5-1.38-1.55-1.38h-.15zM159.326 430.483v.61c0 .68-.11 1.27-.87 1.65l-2.389 1.309c-.609.34-.789.6-.789 1.119v.47h4.008c.06 0 .07.01.07.05v.56c0 .05-.02.06-.06.06h-4.537c-.2 0-.25-.11-.25-.28v-.86c0-.79.28-1.219 1.199-1.71l2.408-1.318c.39-.22.44-.59.44-1.05v-.61c0-.919-.859-1.029-1.819-1.029h-1.779c-.05 0-.07-.01-.07-.06v-.43c0-.049.02-.07.06-.08.75-.07 1.1-.099 1.79-.099 1.359 0 2.588.17 2.588 1.698zM165.056 428.835c.08 0 .13.04.13.12v.419c0 .09-.05.13-.13.13h-3.558l-.16 2.4c.37-.011.78-.021 1.01-.021 2.258 0 2.988.4 3.007 2.129v.24c-.02 1.709-.749 2.108-3.007 2.108-.38 0-1.17-.01-1.67-.04-.08 0-.12-.04-.12-.08v-.47c0-.06.04-.08.12-.08h1.779c1.55 0 2.129-.279 2.129-1.428v-.23c-.01-1.17-.57-1.48-2.129-1.48h-1.778c-.08 0-.12-.03-.12-.08v-.479l.18-3.018c0-.09.05-.14.15-.14h4.167zM171.126 430.483v.61c0 .68-.11 1.27-.87 1.65l-2.389 1.309c-.61.34-.789.6-.789 1.119v.47h4.008c.06 0 .07.01.07.05v.56c0 .05-.02.06-.06.06h-4.537c-.2 0-.25-.11-.25-.28v-.86c0-.79.279-1.219 1.199-1.71l2.408-1.318c.39-.22.44-.59.44-1.05v-.61c0-.919-.859-1.029-1.819-1.029h-1.78c-.049 0-.069-.01-.069-.06v-.43c0-.049.02-.07.06-.08.75-.07 1.1-.099 1.79-.099 1.358 0 2.588.17 2.588 1.698zM176.536 428.835c.09 0 .13.05.13.13v7.086c0 .1-.04.14-.14.15-.92.14-1.34.16-2.029.16-1.849 0-2.2-.54-2.2-2.76 0-2.207.351-2.747 2.27-2.747.56 0 1.019.019 1.38.06v-1.95c0-.08.04-.129.12-.129h.47zm-1.969 2.658c-1.38 0-1.54.41-1.54 2.099 0 1.709.16 2.129 1.47 2.129.43 0 .919-.03 1.45-.1v-4.128h-1.38z"/></g><g fill="#4D4D4D"><path d="M190.51 433.852c.08 0 .13.04.13.13v.38c0 .09-.05.13-.13.13h-1.069v1.689c0 .09-.05.13-.13.13h-.439c-.08 0-.13-.04-.13-.13v-1.69h-1.73v1.69c0 .09-.04.13-.13.13h-.439c-.08 0-.12-.04-.12-.13v-1.69h-.98c-.09 0-.13-.04-.13-.13v-.38c0-.09.04-.13.13-.13h.98v-2.538h-.989c-.08 0-.12-.04-.12-.12v-.39c0-.08.04-.12.12-.12h.99v-1.728c0-.08.04-.12.12-.12h.439c.09 0 .13.04.13.12v1.729h1.73v-1.729c0-.08.049-.12.13-.12h.439c.08 0 .13.04.13.12v1.729h1.069c.08 0 .12.04.12.12v.39c0 .08-.04.12-.12.12h-1.07v2.538h1.07zm-1.768 0v-2.539h-1.73v2.539h1.73zM193.613 428.835c.11 0 .12.06.1.15l-1.41 4.687h2.68v-2.099c0-.07.029-.13.09-.15l.519-.21c.1-.04.16-.02.16.08v2.379h1.31c.1 0 .14.04.14.12v.42c0 .1-.04.13-.14.13h-1.31v1.839c0 .09-.05.13-.13.13h-.51c-.08 0-.13-.04-.13-.13v-1.84h-3.378c-.08 0-.13-.03-.13-.13v-.219c0-.1.03-.2.07-.33l1.41-4.747c.03-.07.07-.08.16-.08h.5zM202.552 430.714v.2c0 .879-.34 1.469-.95 1.649.62.2.95.779.95 1.649v.17c0 1.619-.71 1.978-3.009 1.978-.38 0-.95-.02-1.45-.06-.069-.009-.12-.009-.12-.049v-.49c0-.05.051-.07.13-.07h1.51c1.66 0 2.17-.25 2.17-1.33v-.109c-.012-1-.37-1.35-1.49-1.35h-1.83c-.089 0-.11-.03-.11-.1v-.46c0-.07.021-.099.11-.099h1.82c1.12 0 1.5-.34 1.5-1.37v-.18c0-1.079-.6-1.239-2.24-1.239h-1.44c-.079 0-.13-.02-.13-.07v-.469c0-.05.051-.07.12-.07.5-.05 1.07-.06 1.45-.06 2.259 0 3.009.31 3.009 1.929zM205.673 428.835c.11 0 .119.06.1.15l-1.41 4.687h2.679v-2.099c0-.07.03-.13.09-.15l.52-.21c.099-.04.16-.02.16.08v2.379h1.31c.099 0 .139.04.139.12v.42c0 .1-.04.13-.14.13h-1.31v1.839c0 .09-.05.13-.13.13h-.51c-.08 0-.129-.04-.129-.13v-1.84h-3.378c-.08 0-.13-.03-.13-.13v-.219c0-.1.03-.2.07-.33l1.409-4.747c.03-.07.07-.08.16-.08h.5zM214.312 428.835c.09 0 .13.05.13.13v7.086c0 .1-.04.14-.141.15-.92.14-1.34.16-2.029.16-1.848 0-2.199-.54-2.199-2.76 0-2.207.35-2.747 2.27-2.747.56 0 1.018.019 1.379.06v-1.95c0-.08.04-.129.12-.129h.47zm-1.97 2.658c-1.38 0-1.54.41-1.54 2.099 0 1.709.16 2.129 1.47 2.129.43 0 .92-.03 1.45-.1v-4.128h-1.38zM220.31 428.835c.08 0 .13.04.13.12v.419c0 .09-.05.13-.13.13h-3.557l-.16 2.4c.37-.011.78-.021 1.01-.021 2.258 0 2.988.4 3.007 2.129v.24c-.02 1.709-.749 2.108-3.007 2.108-.38 0-1.17-.01-1.67-.04-.08 0-.12-.04-.12-.08v-.47c0-.06.04-.08.12-.08h1.779c1.55 0 2.129-.279 2.129-1.428v-.23c-.01-1.17-.57-1.48-2.13-1.48h-1.777c-.08 0-.12-.03-.12-.08v-.479l.18-3.018c0-.09.049-.14.149-.14h4.168zM223.603 428.835c.109 0 .119.06.1.15l-1.41 4.687h2.679v-2.099c0-.07.029-.13.09-.15l.52-.21c.099-.04.16-.02.16.08v2.379h1.309c.1 0 .14.04.14.12v.42c0 .1-.04.13-.14.13h-1.31v1.839c0 .09-.05.13-.13.13h-.51c-.08 0-.13-.04-.13-.13v-1.84h-3.377c-.08 0-.131-.03-.131-.13v-.219c0-.1.03-.2.07-.33l1.41-4.747c.03-.07.07-.08.16-.08h.5z"/></g><g fill="#4D4D4D"><path d="M241.31 433.852c.08 0 .13.04.13.13v.38c0 .09-.05.13-.13.13h-1.069v1.689c0 .09-.05.13-.13.13h-.44c-.08 0-.129-.04-.129-.13v-1.69h-1.73v1.69c0 .09-.04.13-.13.13h-.439c-.08 0-.12-.04-.12-.13v-1.69h-.98c-.09 0-.13-.04-.13-.13v-.38c0-.09.04-.13.13-.13h.98v-2.538h-.99c-.08 0-.12-.04-.12-.12v-.39c0-.08.04-.12.12-.12h.99v-1.728c0-.08.04-.12.12-.12h.44c.09 0 .13.04.13.12v1.729h1.729v-1.729c0-.08.05-.12.13-.12h.44c.08 0 .13.04.13.12v1.729h1.069c.08 0 .12.04.12.12v.39c0 .08-.04.12-.12.12h-1.07v2.538h1.07zm-1.768 0v-2.539h-1.73v2.539h1.73zM247.081 428.835c.08 0 .13.04.13.12v.419c0 .09-.05.13-.13.13h-3.558l-.16 2.4c.37-.011.78-.021 1.01-.021 2.259 0 2.988.4 3.008 2.129v.24c-.02 1.709-.75 2.108-3.008 2.108-.38 0-1.17-.01-1.669-.04-.08 0-.12-.04-.12-.08v-.47c0-.06.04-.08.12-.08h1.778c1.55 0 2.13-.279 2.13-1.428v-.23c-.01-1.17-.57-1.48-2.13-1.48h-1.778c-.08 0-.12-.03-.12-.08v-.479l.18-3.018c0-.09.05-.14.15-.14h4.167zM253.071 428.835c.08 0 .13.03.13.12v.32c0 .08-.03.13-.06.189l-3.408 6.757c-.03.06-.08.09-.15.09h-.58c-.11 0-.13-.07-.09-.15l3.349-6.657h-3.998c-.1 0-.14-.04-.14-.12v-.429c0-.09.04-.12.14-.12h4.807zM256.451 428.835c.1 0 .13.06.09.15l-1.528 3.008c.289-.1.61-.14 1.058-.14 1.73 0 2.559.55 2.559 2.128v.25c0 1.58-.81 2.13-2.559 2.13-1.728 0-2.568-.54-2.568-2.14v-.219c0-.55.05-.83.24-1.22l1.969-3.867c.04-.06.09-.08.16-.08h.58zm-2.179 5.177v.19c0 1.12.6 1.488 1.8 1.488 1.21 0 1.8-.378 1.8-1.478v-.2c0-1.12-.6-1.48-1.8-1.48-1.2 0-1.8.36-1.8 1.48zM261.473 428.835c.109 0 .119.06.1.15l-1.41 4.687h2.679v-2.099c0-.07.03-.13.09-.15l.52-.21c.099-.04.16-.02.16.08v2.379h1.309c.1 0 .14.04.14.12v.42c0 .1-.04.13-.14.13h-1.31v1.839c0 .09-.05.13-.13.13h-.51c-.08 0-.13-.04-.13-.13v-1.84h-3.377c-.08 0-.13-.03-.13-.13v-.219c0-.1.03-.2.07-.33l1.409-4.747c.03-.07.07-.08.16-.08h.5zM268.731 428.835c.101 0 .13.06.091.15l-1.529 3.008c.289-.1.61-.14 1.059-.14 1.73 0 2.558.55 2.558 2.128v.25c0 1.58-.808 2.13-2.558 2.13-1.729 0-2.569-.54-2.569-2.14v-.219c0-.55.05-.83.24-1.22l1.97-3.867c.04-.06.089-.08.16-.08h.578zm-2.178 5.177v.19c0 1.12.6 1.488 1.799 1.488 1.21 0 1.8-.378 1.8-1.478v-.2c0-1.12-.6-1.48-1.8-1.48-1.2 0-1.8.36-1.8 1.48zM276.17 433.422v.29c0 .17-.028.25-.309.25h-3.268c.03 1.39.28 1.759 1.449 1.759h1.57c.08 0 .13.04.13.13v.31c0 .07-.04.12-.12.13-.47.05-1.07.07-1.58.07-1.809 0-2.179-.55-2.179-2.76 0-2.207.37-2.747 2.179-2.747 1.71 0 2.11.51 2.129 2.568zm-3.577-.11h2.848c-.02-1.479-.25-1.819-1.399-1.819-1.209 0-1.429.36-1.45 1.82z"/></g><g fill="#4D4D4D"><path d="M292.47 433.852c.08 0 .13.04.13.13v.38c0 .09-.05.13-.13.13h-1.069v1.689c0 .09-.05.13-.13.13h-.439c-.08 0-.13-.04-.13-.13v-1.69h-1.73v1.69c0 .09-.04.13-.13.13h-.439c-.08 0-.12-.04-.12-.13v-1.69h-.98c-.09 0-.13-.04-.13-.13v-.38c0-.09.04-.13.13-.13h.98v-2.538h-.99c-.08 0-.12-.04-.12-.12v-.39c0-.08.04-.12.12-.12h.99v-1.728c0-.08.04-.12.12-.12h.44c.09 0 .13.04.13.12v1.729h1.73v-1.729c0-.08.049-.12.129-.12h.44c.08 0 .13.04.13.12v1.729h1.069c.08 0 .12.04.12.12v.39c0 .08-.04.12-.12.12h-1.07v2.538h1.07zm-1.768 0v-2.539h-1.73v2.539h1.73zM297.642 432.402v3.498c0 .08.01.19-.18.26-.31.12-1.24.2-2.129.2-1.31 0-1.83-.33-1.83-1.579 0-1.1.56-1.48 1.67-1.48h1.749v-.788c0-.75-.5-1.02-1.479-1.02h-1.35c-.099 0-.13-.03-.13-.13v-.28c0-.1.031-.12.121-.14.55-.08.999-.09 1.36-.09 1.378 0 2.198.39 2.198 1.55zm-2.47 1.53c-.649 0-.948.22-.948.85 0 .739.33.948 1.27.948.309 0 1.008-.02 1.428-.13v-1.668h-1.75zM299.693 428.835c.08 0 .13.05.13.13v1.948c.35-.04.81-.06 1.38-.06 1.91 0 2.259.54 2.259 2.749s-.34 2.758-2.2 2.758c-.689 0-1.109-.02-2.028-.16-.1-.01-.14-.05-.14-.15v-7.085c0-.08.05-.13.13-.13h.47zm.13 2.658v4.128c.52.07 1.01.1 1.44.1 1.319 0 1.48-.43 1.48-2.13 0-1.688-.17-2.098-1.54-2.098h-1.38zM305.373 428.835c.08 0 .13.05.13.13v1.948c.35-.04.81-.06 1.38-.06 1.909 0 2.259.54 2.259 2.749s-.34 2.758-2.2 2.758c-.69 0-1.109-.02-2.028-.16-.1-.01-.14-.05-.14-.15v-7.085c0-.08.05-.13.13-.13h.469zm.13 2.658v4.128c.52.07 1.01.1 1.44.1 1.319 0 1.479-.43 1.479-2.13 0-1.688-.17-2.098-1.54-2.098h-1.38zM314.241 432.402v3.498c0 .08.01.19-.18.26-.309.12-1.239.2-2.128.2-1.31 0-1.83-.33-1.83-1.579 0-1.1.56-1.48 1.67-1.48h1.748v-.788c0-.75-.499-1.02-1.478-1.02h-1.35c-.1 0-.13-.03-.13-.13v-.28c0-.1.03-.12.12-.14.55-.08 1-.09 1.36-.09 1.379 0 2.198.39 2.198 1.55zm-2.469 1.53c-.649 0-.949.22-.949.85 0 .739.33.948 1.27.948.31 0 1.009-.02 1.428-.13v-1.668h-1.749zM319.222 430.924c.08.01.12.06.12.13v.31c0 .09-.05.13-.13.13h-1.47c-1.299 0-1.499.42-1.499 2.108 0 1.689.2 2.119 1.5 2.119h1.469c.08 0 .13.04.13.13v.31c0 .07-.04.12-.12.13-.47.05-1.1.07-1.48.07-1.839 0-2.219-.55-2.219-2.76 0-2.198.38-2.747 2.22-2.747.38 0 1.009.01 1.479.07zM324.812 430.714v.2c0 .879-.34 1.469-.95 1.649.62.2.95.779.95 1.649v.17c0 1.619-.71 1.978-3.01 1.978-.38 0-.948-.02-1.448-.06-.07-.009-.12-.009-.12-.049v-.49c0-.05.05-.07.13-.07h1.509c1.66 0 2.169-.25 2.169-1.33v-.109c-.01-1-.37-1.35-1.49-1.35h-1.828c-.09 0-.11-.03-.11-.1v-.46c0-.07.02-.099.11-.099h1.819c1.12 0 1.499-.34 1.499-1.37v-.18c0-1.079-.6-1.239-2.24-1.239h-1.439c-.079 0-.13-.02-.13-.07v-.469c0-.05.051-.07.12-.07.5-.05 1.07-.06 1.45-.06 2.259 0 3.009.31 3.009 1.929z"/></g><g fill="#4D4D4D"><path d="M348.346 433.852c.08 0 .13.04.13.13v.38c0 .09-.05.13-.13.13h-1.07v1.689c0 .09-.05.13-.13.13h-.439c-.08 0-.13-.04-.13-.13v-1.69h-1.73v1.69c0 .09-.04.13-.13.13h-.439c-.08 0-.12-.04-.12-.13v-1.69h-.98c-.09 0-.13-.04-.13-.13v-.38c0-.09.04-.13.13-.13h.98v-2.538h-.99c-.08 0-.12-.04-.12-.12v-.39c0-.08.04-.12.12-.12h.99v-1.728c0-.08.04-.12.12-.12h.44c.09 0 .13.04.13.12v1.729h1.73v-1.729c0-.08.049-.12.129-.12h.44c.08 0 .13.04.13.12v1.729h1.069c.08 0 .12.04.12.12v.39c0 .08-.04.12-.12.12h-1.07v2.538h1.07zm-1.769 0v-2.539h-1.73v2.539h1.73zM355.806 428.984v.31c0 .08-.04.13-.12.13h-.57c-.5 0-.88.02-.88.56v.92h1.35c.08 0 .13.05.11.15l-.06.34c-.02.08-.06.109-.14.109h-1.26v4.678c0 .09-.04.13-.13.13h-.47c-.08 0-.13-.04-.13-.13v-4.678h-2.678v4.678c0 .09-.04.13-.13.13h-.47c-.08 0-.12-.04-.12-.13v-4.678h-.749c-.08 0-.13-.04-.13-.12v-.35c0-.08.05-.13.13-.13h.75v-1.06c0-1.048.93-1.069 1.349-1.069.28 0 .64.04.85.08.08.01.109.05.109.13v.31c0 .08-.04.13-.12.13h-.589c-.5 0-.88.02-.88.56v.92h2.679v-1.06c0-1.05.94-1.07 1.36-1.07.279 0 .618.04.828.08.08.01.11.05.11.13zM362.676 428.984v.31c0 .08-.04.13-.12.13h-.57c-.5 0-.88.02-.88.56v.92h1.35c.08 0 .13.05.11.15l-.06.34c-.02.08-.06.109-.14.109h-1.26v4.678c0 .09-.04.13-.13.13h-.47c-.08 0-.129-.04-.129-.13v-4.678h-2.679v4.678c0 .09-.04.13-.13.13h-.47c-.08 0-.12-.04-.12-.13v-4.678h-.749c-.08 0-.13-.04-.13-.12v-.35c0-.08.05-.13.13-.13h.75v-1.06c0-1.048.93-1.069 1.35-1.069.278 0 .639.04.849.08.08.01.11.05.11.13v.31c0 .08-.04.13-.12.13h-.59c-.5 0-.88.02-.88.56v.92h2.679v-1.06c0-1.05.94-1.07 1.36-1.07.279 0 .618.04.828.08.08.01.11.05.11.13zM369.546 428.984v.31c0 .08-.04.13-.12.13h-.57c-.5 0-.88.02-.88.56v.92h1.35c.08 0 .13.05.11.15l-.06.34c-.02.08-.06.109-.14.109h-1.26v4.678c0 .09-.04.13-.13.13h-.469c-.08 0-.13-.04-.13-.13v-4.678h-2.679v4.678c0 .09-.04.13-.13.13h-.47c-.08 0-.12-.04-.12-.13v-4.678h-.748c-.08 0-.13-.04-.13-.12v-.35c0-.08.05-.13.13-.13h.749v-1.06c0-1.048.93-1.069 1.35-1.069.279 0 .639.04.849.08.08.01.11.05.11.13v.31c0 .08-.04.13-.12.13h-.59c-.5 0-.88.02-.88.56v.92h2.68v-1.06c0-1.05.939-1.07 1.358-1.07.28 0 .62.04.83.08.08.01.11.05.11.13z"/></g></svg>