<?xml version="1.0" encoding="utf-8"?>
<!-- Generator: Adobe Illustrator 24.0.2, SVG Export Plug-In . SVG Version: 6.00 Build 0)  -->
<svg version="1.2" baseProfile="tiny" id="Layer_1" xmlns="http://www.w3.org/2000/svg" xmlns:xlink="http://www.w3.org/1999/xlink"
	 x="0px" y="0px" viewBox="0 0 512 512" xml:space="preserve">
<g>
	<path fill="#047F7C" d="M74.4759293,73.1981125c0.8308487,0,1.2004471,0.3680954,1.2004471,1.1072998v3.8762741
		c0,0.8308487-0.3695984,1.2004471-1.2004471,1.2004471H38.1080132v26.3992691h33.0445366
		c0.8308411,0,1.2004395,0.4612427,1.2004395,1.2004395v3.8762817c0,0.7391968-0.3695984,1.2004471-1.2004395,1.2004471H38.1080132
		v28.9834518c0,0.8308411-0.4612465,1.2004395-1.2004433,1.2004395h-4.7071266
		c-0.7391968,0-1.2004433-0.3695984-1.2004433-1.2004395V74.5818558c0-0.922493,0.4612465-1.3837433,1.3852425-1.3837433H74.4759293
		z"/>
	<path fill="#047F7C" d="M94.7843323,73.1981125c0.7391968,0,1.2004395,0.3680954,1.2004395,1.1072998v66.7366104
		c0,0.8308411-0.4612427,1.2004395-1.2004395,1.2004395h-4.3390274c-0.7377014,0-1.1989441-0.3695984-1.1989441-1.2004395
		V74.3054123c0-0.7392044,0.4612427-1.1072998,1.1989441-1.1072998H94.7843323z"/>
	<path fill="#047F7C" d="M122.1075974,78.1816864c0,2.8621368-1.4768982,4.4306793-4.2458801,4.4306793
		c-2.8621368,0-4.4306793-1.5685425-4.4306793-4.4306793c0-2.7689819,1.5685425-4.2458725,4.4306793-4.2458725
		C120.6306992,73.9358139,122.1075974,75.4127045,122.1075974,78.1816864z M119.9846573,92.3045654
		c0.7391968,0,1.2004395,0.4627533,1.2004395,1.2004471v47.5370102c0,0.8308411-0.4612427,1.2004395-1.2004395,1.2004395h-4.337532
		c-0.8308411,0-1.2004395-0.3695984-1.2004395-1.2004395V93.5050125c0-0.7376938,0.3695984-1.2004471,1.2004395-1.2004471
		H119.9846573z"/>
	<path fill="#047F7C" d="M179.7995605,117.5048904c0,20.3068924-3.2302399,25.1988297-20.9529419,25.1988297
		c-4.6154785,0-8.3084717-0.0916595-12.6459961-0.5529022v16.9835205c0,0.7391968-0.3695984,1.2004395-1.1072845,1.2004395
		h-4.339035c-0.8308411,0-1.2004395-0.4612427-1.2004395-1.2004395V94.4275055c0-0.922493,0.3695984-1.1989441,1.2920837-1.3837433
		c8.4932556-1.1072922,12.2778931-1.2004395,18.6467133-1.2004395
		C176.5693207,91.8433228,179.7995605,96.9200439,179.7995605,117.5048904z M146.2006226,97.7508926v38.3992081
		c4.0610809,0.3695984,8.6765594,0.6460419,12.6459961,0.6460419c12.7376251,0,14.2145233-3.7846375,14.2145233-19.3843994
		c0-15.7830734-1.3837433-19.6608505-13.5684814-19.6608505H146.2006226z"/>
	<path fill="#047F7C" d="M226.2307739,92.4893646c0.7391968,0.0931549,1.1072998,0.5543976,1.1072998,1.2004471v2.8606339
		c0,0.8308487-0.368103,1.2004471-1.1989441,1.2004471H209.338913c-4.1527252,0-8.0305176,1.2920914-8.0305176,5.5379715v1.4768906
		c0,3.138588,1.2004547,5.4463196,6.184021,7.4776154l13.0155792,5.2615204
		c8.0305176,3.2302322,8.7697144,7.5692673,8.7697144,12.3680344v1.1087952c0,9.7838593-5.3546753,11.7220001-18.0923157,11.7220001
		c-6.646759,0-14.5841217-0.5529022-16.0610199-0.7377014c-0.923996-0.0931549-1.1072845-0.5543976-1.1072845-1.1087952v-2.8606415
		c0-0.8308411,0.3680878-1.2004395,1.1072845-1.2004395h16.2458191c8.5849152,0,11.2607422-1.1072998,11.2607422-5.8144226
		v-1.2004395c0-3.046936-1.1072845-5.0767288-5.5379639-6.9232178l-13.8464355-5.5379715
		c-7.0148621-2.8621368-8.5834045-7.6609116-8.5834045-12.6459885v-2.0312881
		c0-9.9686508,9.1378021-10.7994919,17.259964-10.7994919C215.522934,91.8433228,221.4304962,91.93647,226.2307739,92.4893646z"/>
	<path fill="#047F7C" d="M252.2619476,78.3664856c0.923996-0.2764435,1.3852386,0.0931549,1.3852386,1.0156479v12.9224319
		h10.2450867c0.7391968,0,1.20047,0.4627533,1.20047,1.2004471v3.2302322c0,0.7391968-0.4612732,1.1087952-1.20047,1.1087952
		h-10.2450867v33.7837372c0,4.1527252,1.1072998,5.1683655,5.9992065,5.1683655h4.8934326
		c0.9225159,0,1.2921143,0.2779541,1.2921143,1.1072998v3.1385803c0,0.6460419-0.3695984,1.0156403-1.1087952,1.2004395
		c-1.5685425,0.3695984-4.3375549,0.4612579-4.9835815,0.4612579c-6.3688202,0-12.8307953-0.4612579-12.8307953-9.692215V97.8440399
		h-5.1683655c-0.8308563,0-1.2004547-0.3695984-1.2004547-1.1087952v-3.2302322
		c0-0.7376938,0.3695984-1.2004471,1.2004547-1.2004471h5.1683655V80.5825806c0-0.6460495,0.3695984-1.0156479,1.0156555-1.2004471
		L252.2619476,78.3664856z"/>
	<path fill="#047F7C" d="M354.9082336,92.6741638c0.7377014,0.2764511,1.1072998,0.5543976,1.1072998,1.292099v2.6773376
		c0,0.8308411-0.4612427,1.2004395-1.2004395,1.1072922h-8.0305176c-5.4448242,0-8.1221619,0.8308411-8.1221619,5.2615204
		v38.0296097c0,0.8308411-0.3695984,1.2004395-1.2004395,1.2004395h-4.3375244
		c-0.7391968,0-1.2004395-0.3695984-1.2004395-1.2004395v-39.413353c0-9.6921997,9.3226013-9.785347,13.383667-9.785347
		C347.5237732,91.8433228,353.3381958,92.1197662,354.9082336,92.6741638z"/>
	<path fill="#047F7C" d="M376.3224182,78.3664856c0.9240112-0.2764435,1.3852539,0.0931549,1.3852539,1.0156479v12.9224319
		h10.246582c0.7377014,0,1.1989441,0.4627533,1.1989441,1.2004471v3.2302322c0,0.7391968-0.4612427,1.1087952-1.1989441,1.1087952
		h-10.246582v33.7837372c0,4.1527252,1.1072998,5.1683655,5.9992065,5.1683655h4.8934326
		c0.9224854,0,1.2920837,0.2779541,1.2920837,1.1072998v3.1385803c0,0.6460419-0.3695984,1.0156403-1.1087952,1.2004395
		c-1.5685425,0.3695984-4.3375244,0.4612579-4.983551,0.4612579c-6.3688354,0-12.8308105-0.4612579-12.8308105-9.692215V97.8440399
		h-5.1698608c-0.8293457,0-1.1989441-0.3695984-1.1989441-1.1087952v-3.2302322
		c0-0.7376938,0.3695984-1.2004471,1.1989441-1.2004471h5.1698608V80.5825806c0-0.6460495,0.3695984-1.0156479,1.0156555-1.2004471
		L376.3224182,78.3664856z"/>
	<path fill="#047F7C" d="M441.3056946,115.5667496v2.6758347c0,1.5700455-0.2764587,2.3077393-2.8606262,2.3077393h-30.1838989
		c0.2764282,12.8307953,2.5841675,16.2458191,13.383667,16.2458191h14.4924927c0.7391968,0,1.2004395,0.3695984,1.2004395,1.2004395
		v2.8606415c0,0.6460419-0.3695984,1.1087952-1.1087952,1.2004395c-4.3375244,0.4612579-9.8754883,0.6460571-14.584137,0.6460571
		c-16.7070618,0-20.1221008-5.0767365-20.1221008-25.4767761c0-20.3985443,3.4150391-25.3836212,20.1221008-25.3836212
		C437.4294128,91.8433228,441.122406,96.5504456,441.3056946,115.5667496z M408.2611694,114.5511093h26.3076172
		c-0.1848145-13.6616364-2.3077393-16.8002167-12.9239502-16.8002167
		C410.4757385,97.7508926,408.4459534,101.0742722,408.2611694,114.5511093z"/>
	<path fill="#047F7C" d="M479.8927002,92.6741638C480.6304016,92.9506149,481,93.2285614,481,93.9662628v2.6773376
		c0,0.8308411-0.4612427,1.2004395-1.2004395,1.1072922h-8.0305176c-5.4448242,0-8.1221619,0.8308411-8.1221619,5.2615204
		v38.0296097c0,0.8308411-0.3695984,1.2004395-1.2004395,1.2004395h-4.3375244
		c-0.7391968,0-1.2004395-0.3695984-1.2004395-1.2004395v-39.413353c0-9.6921997,9.3226013-9.785347,13.383667-9.785347
		C472.5082397,91.8433228,478.3226624,92.1197662,479.8927002,92.6741638z"/>
	<path fill="#047F7C" d="M314.0809937,106.1512222v32.3068314c0,0.7391968,0.0931396,1.7533417-1.6616821,2.3993988
		c-2.8606567,1.1087952-11.4455566,1.8464813-19.6608582,1.8464813c-12.0915833,0-16.8918762-3.0454254-16.8918762-14.5841217
		c0-7.8512192,3.091217-11.7290649,9.2298584-13.0839691c1.8000183-0.3973007,22.3392944-4.7514572,22.3392944-4.7514572v-3.1175156
		c0-6.9232178-4.6154785-9.4157562-13.6616211-9.4157562h-12.4612122c-0.9239807,0-1.2004395-0.2764511-1.2004395-1.2004471
		v-2.5841827c0-0.922493,0.2764587-1.1072922,1.1072998-1.2920914c5.0767212-0.7377014,9.230957-0.8308487,12.5543518-0.8308487
		C306.5117188,91.843544,314.0809937,95.4433746,314.0809937,106.1512222z M287.5635986,120.6375198
		c-3.4353027,0.807869-5.0502319,3.0418777-5.0502319,7.4822922c0,6.8300629,3.0454102,8.7696991,11.7219849,8.7696991
		c2.8621216,0,9.3226013-0.1847992,13.2003784-1.2004395v-19.2179794
		C307.43573,116.4710922,288.6265869,120.3875351,287.5635986,120.6375198z"/>
</g>
<rect x="131" y="274" fill="#03514D" width="50" height="50"/>
<rect x="181" y="274" fill="#025E57" width="50" height="50"/>
<rect x="231" y="274" fill="#047F7C" width="50" height="50"/>
<rect x="281" y="274" fill="#1CACAB" width="50" height="50"/>
<rect x="331" y="274" fill="#A1DADB" width="50" height="50"/>
<rect x="131" y="374" fill="#08252D" width="50" height="50"/>
<rect x="181" y="374" fill="#434D54" width="50" height="50"/>
<rect x="231" y="374" fill="#57646E" width="50" height="50"/>
<rect x="281" y="374" fill="#ABBAC3" width="50" height="50"/>
<g>
	<rect x="331.5" y="374.5" fill="#FFFFFF" width="49" height="49"/>
	<path fill="#ABBAC3" d="M380,375v48h-48v-48H380 M381,374h-50v50h50V374L381,374z"/>
</g>
<g>
	<path fill="#4D4D4D" d="M141.5009766,333.8515625c0.0800781,0,0.1298828,0.0400391,0.1298828,0.1298828v0.3798828
		c0,0.0898438-0.0498047,0.1298828-0.1298828,0.1298828h-1.0693359v1.6894531c0,0.0898438-0.0498047,0.1298828-0.1298828,0.1298828
		h-0.4394531c-0.0800781,0-0.1298828-0.0400391-0.1298828-0.1298828v-1.6894531h-1.7294922v1.6894531
		c0,0.0898438-0.0400391,0.1298828-0.1298828,0.1298828h-0.4394531c-0.0800781,0-0.1201172-0.0400391-0.1201172-0.1298828
		v-1.6894531h-0.9794922c-0.0898438,0-0.1298828-0.0400391-0.1298828-0.1298828v-0.3798828
		c0-0.0898438,0.0400391-0.1298828,0.1298828-0.1298828h0.9794922v-2.5380859h-0.9892578
		c-0.0800781,0-0.1201172-0.0400391-0.1201172-0.1201172v-0.3896484c0-0.0800781,0.0400391-0.1201172,0.1201172-0.1201172h0.9892578
		v-1.7285156c0-0.0800781,0.0400391-0.1201172,0.1201172-0.1201172h0.4394531c0.0898438,0,0.1298828,0.0400391,0.1298828,0.1201172
		v1.7285156h1.7294922v-1.7285156c0-0.0800781,0.0498047-0.1201172,0.1298828-0.1201172h0.4394531
		c0.0800781,0,0.1298828,0.0400391,0.1298828,0.1201172v1.7285156h1.0693359c0.0800781,0,0.1201172,0.0400391,0.1201172,0.1201172
		v0.3896484c0,0.0800781-0.0400391,0.1201172-0.1201172,0.1201172h-1.0693359v2.5380859H141.5009766z M139.7324219,333.8515625
		v-2.5380859h-1.7294922v2.5380859H139.7324219z"/>
	<path fill="#4D4D4D" d="M148.1308594,332.5830078c0,2.9277344-0.5195313,3.7773438-2.6884766,3.7773438
		s-2.6777344-0.8496094-2.6777344-3.7773438c0-2.9287109,0.5087891-3.7978516,2.6777344-3.7978516
		S148.1308594,329.6542969,148.1308594,332.5830078z M143.5234375,332.5830078c0,2.4082031,0.3701172,3.1074219,1.9189453,3.1074219
		c1.5595703,0,1.9296875-0.6992188,1.9296875-3.1074219c0-2.3994141-0.3701172-3.1289063-1.9296875-3.1289063
		C143.8935547,329.4541016,143.5234375,330.1835938,143.5234375,332.5830078z"/>
	<path fill="#4D4D4D" d="M153.8720703,330.7138672v0.1992188c0,0.8798828-0.3398438,1.4697266-0.9501953,1.6494141
		c0.6201172,0.2001953,0.9501953,0.7792969,0.9501953,1.6494141v0.1699219c0,1.6191406-0.7099609,1.9785156-3.0087891,1.9785156
		c-0.3798828,0-0.9492188-0.0195313-1.4492188-0.0595703c-0.0693359-0.0097656-0.1201172-0.0097656-0.1201172-0.0498047v-0.4902344
		c0-0.0498047,0.0507813-0.0703125,0.1298828-0.0703125h1.5097656c1.6591797,0,2.1689453-0.2490234,2.1689453-1.3291016v-0.109375
		c-0.0107422-1-0.3701172-1.3496094-1.4892578-1.3496094h-1.8291016c-0.0898438,0-0.1103516-0.0302734-0.1103516-0.0996094
		v-0.4599609c0-0.0703125,0.0205078-0.0996094,0.1103516-0.0996094h1.8193359c1.1191406,0,1.4990234-0.3398438,1.4990234-1.3701172
		v-0.1796875c0-1.0791016-0.5996094-1.2392578-2.2392578-1.2392578h-1.4394531
		c-0.0791016,0-0.1298828-0.0195313-0.1298828-0.0693359v-0.4697266c0-0.0507813,0.0507813-0.0703125,0.1201172-0.0703125
		c0.5-0.0498047,1.0693359-0.0595703,1.4492188-0.0595703C153.1220703,328.7851563,153.8720703,329.0947266,153.8720703,330.7138672
		z"/>
	<path fill="#4D4D4D" d="M159.6611328,328.8349609c0.0800781,0,0.1298828,0.0400391,0.1298828,0.1201172v0.4189453
		c0,0.0898438-0.0498047,0.1298828-0.1298828,0.1298828h-3.5576172l-0.1601563,2.3994141
		c0.3701172-0.0107422,0.7792969-0.0205078,1.0097656-0.0205078c2.2587891,0,2.9882813,0.4003906,3.0078125,2.1289063v0.2402344
		c-0.0195313,1.7089844-0.7490234,2.1083984-3.0078125,2.1083984c-0.3798828,0-1.1699219-0.0097656-1.6689453-0.0400391
		c-0.0800781,0-0.1201172-0.0400391-0.1201172-0.0800781v-0.4697266c0-0.0595703,0.0400391-0.0800781,0.1201172-0.0800781H157.0625
		c1.5498047,0,2.1289063-0.2792969,2.1289063-1.4287109v-0.2294922c-0.0097656-1.1699219-0.5693359-1.4794922-2.1289063-1.4794922
		h-1.7783203c-0.0800781,0-0.1201172-0.0302734-0.1201172-0.0800781v-0.4794922l0.1796875-3.0185547
		c0-0.0898438,0.0498047-0.1396484,0.1503906-0.1396484H159.6611328z"/>
	<path fill="#4D4D4D" d="M164.3818359,335.640625c0.0800781,0,0.1298828,0.0400391,0.1298828,0.1201172v0.4199219
		c0,0.0898438-0.0498047,0.1298828-0.1298828,0.1298828h-3.2578125c-0.0800781,0-0.1201172-0.0400391-0.1201172-0.1298828
		v-0.4199219c0-0.0800781,0.0400391-0.1201172,0.1201172-0.1201172h1.2890625v-5.6162109
		c0-0.4804688-0.2597656-0.5703125-0.8798828-0.5703125h-0.5498047c-0.0898438,0.0097656-0.1396484-0.0400391-0.1396484-0.1201172
		v-0.3291016c0-0.0703125,0.0400391-0.1005859,0.1201172-0.1298828c0.1796875-0.0605469,0.4892578-0.0898438,0.7294922-0.0898438
		c0.4794922,0,1.4794922,0.0097656,1.4794922,1.0585938v5.796875H164.3818359z"/>
	<path fill="#4D4D4D" d="M166.9335938,328.8349609c0.109375,0,0.1191406,0.0595703,0.0996094,0.1494141l-1.4091797,4.6875h2.6787109
		v-2.0986328c0-0.0703125,0.0292969-0.1298828,0.0898438-0.1503906l0.5195313-0.2099609
		c0.0996094-0.0390625,0.1601563-0.0195313,0.1601563,0.0800781v2.3789063h1.3095703
		c0.0996094,0,0.1396484,0.0400391,0.1396484,0.1201172v0.4199219c0,0.0996094-0.0400391,0.1298828-0.1396484,0.1298828h-1.3095703
		v1.8388672c0,0.0898438-0.0498047,0.1298828-0.1298828,0.1298828h-0.5097656c-0.0800781,0-0.1298828-0.0400391-0.1298828-0.1298828
		v-1.8388672h-3.3779297c-0.0800781,0-0.1298828-0.0302734-0.1298828-0.1298828v-0.2197266
		c0-0.1005859,0.0292969-0.2001953,0.0693359-0.3300781l1.4091797-4.7470703
		c0.0302734-0.0703125,0.0703125-0.0800781,0.1601563-0.0800781H166.9335938z"/>
	<path fill="#4D4D4D" d="M175.5722656,328.8349609c0.0898438,0,0.1298828,0.0498047,0.1298828,0.1298828v7.0859375
		c0,0.0996094-0.0400391,0.1396484-0.1396484,0.1494141c-0.9199219,0.140625-1.3398438,0.1601563-2.0292969,0.1601563
		c-1.8486328,0-2.1992188-0.5390625-2.1992188-2.7587891c0-2.2080078,0.3505859-2.7480469,2.2695313-2.7480469
		c0.5595703,0,1.0185547,0.0195313,1.3789063,0.0595703v-1.9482422c0-0.0800781,0.0400391-0.1298828,0.1201172-0.1298828
		H175.5722656z M173.6035156,331.4931641c-1.3798828,0-1.5400391,0.4101563-1.5400391,2.0986328
		c0,1.7089844,0.1601563,2.1289063,1.4697266,2.1289063c0.4296875,0,0.9189453-0.0302734,1.4492188-0.0996094v-4.1279297
		H173.6035156z"/>
</g>
<g>
	<path fill="#4D4D4D" d="M191.0351563,333.8515625c0.0800781,0,0.1298828,0.0400391,0.1298828,0.1298828v0.3798828
		c0,0.0898438-0.0498047,0.1298828-0.1298828,0.1298828h-1.0693359v1.6894531c0,0.0898438-0.0498047,0.1298828-0.1298828,0.1298828
		h-0.4394531c-0.0800781,0-0.1298828-0.0400391-0.1298828-0.1298828v-1.6894531h-1.7294922v1.6894531
		c0,0.0898438-0.0400391,0.1298828-0.1298828,0.1298828h-0.4394531c-0.0800781,0-0.1201172-0.0400391-0.1201172-0.1298828
		v-1.6894531h-0.9794922c-0.0898438,0-0.1298828-0.0400391-0.1298828-0.1298828v-0.3798828
		c0-0.0898438,0.0400391-0.1298828,0.1298828-0.1298828h0.9794922v-2.5380859h-0.9892578
		c-0.0800781,0-0.1201172-0.0400391-0.1201172-0.1201172v-0.3896484c0-0.0800781,0.0400391-0.1201172,0.1201172-0.1201172h0.9892578
		v-1.7285156c0-0.0800781,0.0400391-0.1201172,0.1201172-0.1201172h0.4394531c0.0898438,0,0.1298828,0.0400391,0.1298828,0.1201172
		v1.7285156h1.7294922v-1.7285156c0-0.0800781,0.0498047-0.1201172,0.1298828-0.1201172h0.4394531
		c0.0800781,0,0.1298828,0.0400391,0.1298828,0.1201172v1.7285156h1.0693359c0.0800781,0,0.1201172,0.0400391,0.1201172,0.1201172
		v0.3896484c0,0.0800781-0.0400391,0.1201172-0.1201172,0.1201172h-1.0693359v2.5380859H191.0351563z M189.2666016,333.8515625
		v-2.5380859h-1.7294922v2.5380859H189.2666016z"/>
	<path fill="#4D4D4D" d="M197.6650391,332.5830078c0,2.9277344-0.5195313,3.7773438-2.6884766,3.7773438
		s-2.6777344-0.8496094-2.6777344-3.7773438c0-2.9287109,0.5087891-3.7978516,2.6777344-3.7978516
		S197.6650391,329.6542969,197.6650391,332.5830078z M193.0576172,332.5830078c0,2.4082031,0.3701172,3.1074219,1.9189453,3.1074219
		c1.5595703,0,1.9296875-0.6992188,1.9296875-3.1074219c0-2.3994141-0.3701172-3.1289063-1.9296875-3.1289063
		C193.4277344,329.4541016,193.0576172,330.1835938,193.0576172,332.5830078z"/>
	<path fill="#4D4D4D" d="M203.5361328,330.4833984v0.6103516c0,0.6796875-0.1103516,1.2685547-0.8701172,1.6484375
		l-2.3886719,1.3095703c-0.609375,0.3398438-0.7890625,0.5996094-0.7890625,1.1191406v0.4697266h4.0078125
		c0.0595703,0,0.0703125,0.0107422,0.0703125,0.0498047v0.5605469c0,0.0498047-0.0205078,0.0595703-0.0605469,0.0595703H198.96875
		c-0.2001953,0-0.25-0.1103516-0.25-0.2802734v-0.859375c0-0.7890625,0.2792969-1.21875,1.1992188-1.7089844l2.4082031-1.3193359
		c0.390625-0.2197266,0.4404297-0.5898438,0.4404297-1.0488281v-0.6103516c0-0.9189453-0.859375-1.0292969-1.8193359-1.0292969
		h-1.7792969c-0.0498047,0-0.0693359-0.0097656-0.0693359-0.0595703v-0.4296875
		c0-0.0498047,0.0195313-0.0703125,0.0595703-0.0800781c0.75-0.0703125,1.0996094-0.0996094,1.7890625-0.0996094
		C202.3066406,328.7851563,203.5361328,328.9550781,203.5361328,330.4833984z"/>
	<path fill="#4D4D4D" d="M209.265625,328.8349609c0.0800781,0,0.1298828,0.0400391,0.1298828,0.1201172v0.4189453
		c0,0.0898438-0.0498047,0.1298828-0.1298828,0.1298828h-3.5576172l-0.1601563,2.3994141
		c0.3701172-0.0107422,0.7792969-0.0205078,1.0097656-0.0205078c2.2587891,0,2.9882813,0.4003906,3.0078125,2.1289063v0.2402344
		c-0.0195313,1.7089844-0.7490234,2.1083984-3.0078125,2.1083984c-0.3798828,0-1.1699219-0.0097656-1.6689453-0.0400391
		c-0.0800781,0-0.1201172-0.0400391-0.1201172-0.0800781v-0.4697266c0-0.0595703,0.0400391-0.0800781,0.1201172-0.0800781h1.7783203
		c1.5498047,0,2.1289063-0.2792969,2.1289063-1.4287109v-0.2294922c-0.0097656-1.1699219-0.5693359-1.4794922-2.1289063-1.4794922
		h-1.7783203c-0.0800781,0-0.1201172-0.0302734-0.1201172-0.0800781v-0.4794922l0.1796875-3.0185547
		c0-0.0898438,0.0498047-0.1396484,0.1494141-0.1396484H209.265625z"/>
	<path fill="#4D4D4D" d="M214.9755859,333.421875v0.2900391c0,0.1699219-0.0292969,0.25-0.3095703,0.25h-3.2685547
		c0.0302734,1.3896484,0.2802734,1.7587891,1.4492188,1.7587891h1.5693359c0.0800781,0,0.1298828,0.0400391,0.1298828,0.1298828
		v0.3095703c0,0.0703125-0.0400391,0.1201172-0.1201172,0.1308594c-0.4697266,0.0498047-1.0693359,0.0693359-1.5791016,0.0693359
		c-1.8085938,0-2.1787109-0.5498047-2.1787109-2.7587891c0-2.2080078,0.3701172-2.7480469,2.1787109-2.7480469
		C214.5566406,330.8535156,214.9560547,331.3632813,214.9755859,333.421875z M211.3974609,333.3125h2.8486328
		c-0.0195313-1.4794922-0.25-1.8193359-1.3994141-1.8193359C211.6376953,331.4931641,211.4179688,331.8525391,211.3974609,333.3125z
		"/>
	<path fill="#4D4D4D" d="M220.5654297,328.8349609c0.0800781,0,0.1298828,0.0400391,0.1298828,0.1201172v0.4189453
		c0,0.0898438-0.0498047,0.1298828-0.1298828,0.1298828h-3.5576172l-0.1601563,2.3994141
		c0.3701172-0.0107422,0.7792969-0.0205078,1.0097656-0.0205078c2.2587891,0,2.9882813,0.4003906,3.0078125,2.1289063v0.2402344
		c-0.0195313,1.7089844-0.7490234,2.1083984-3.0078125,2.1083984c-0.3798828,0-1.1699219-0.0097656-1.6689453-0.0400391
		c-0.0800781,0-0.1201172-0.0400391-0.1201172-0.0800781v-0.4697266c0-0.0595703,0.0400391-0.0800781,0.1201172-0.0800781h1.7783203
		c1.5498047,0,2.1289063-0.2792969,2.1289063-1.4287109v-0.2294922c-0.0097656-1.1699219-0.5693359-1.4794922-2.1289063-1.4794922
		h-1.7783203c-0.0800781,0-0.1201172-0.0302734-0.1201172-0.0800781v-0.4794922l0.1796875-3.0185547
		c0-0.0898438,0.0498047-0.1396484,0.1503906-0.1396484H220.5654297z"/>
	<path fill="#4D4D4D" d="M226.5556641,328.8349609c0.0800781,0,0.1298828,0.0292969,0.1298828,0.1201172v0.3193359
		c0,0.0800781-0.0302734,0.1298828-0.0595703,0.1894531l-3.4082031,6.7568359
		c-0.0302734,0.0595703-0.0800781,0.0898438-0.1503906,0.0898438h-0.5791016c-0.1103516,0-0.1308594-0.0703125-0.0908203-0.1503906
		l3.3486328-6.65625h-3.9980469c-0.0996094,0-0.1396484-0.0400391-0.1396484-0.1191406v-0.4296875
		c0-0.0908203,0.0400391-0.1201172,0.1396484-0.1201172H226.5556641z"/>
</g>
<g>
	<path fill="#4D4D4D" d="M242.7558594,333.8515625c0.0800781,0,0.1298828,0.0400391,0.1298828,0.1298828v0.3798828
		c0,0.0898438-0.0498047,0.1298828-0.1298828,0.1298828h-1.0693359v1.6894531c0,0.0898438-0.0498047,0.1298828-0.1298828,0.1298828
		h-0.4394531c-0.0800781,0-0.1298828-0.0400391-0.1298828-0.1298828v-1.6894531h-1.7294922v1.6894531
		c0,0.0898438-0.0400391,0.1298828-0.1298828,0.1298828h-0.4394531c-0.0800781,0-0.1201172-0.0400391-0.1201172-0.1298828
		v-1.6894531h-0.9794922c-0.0898438,0-0.1298828-0.0400391-0.1298828-0.1298828v-0.3798828
		c0-0.0898438,0.0400391-0.1298828,0.1298828-0.1298828h0.9794922v-2.5380859h-0.9892578
		c-0.0800781,0-0.1201172-0.0400391-0.1201172-0.1201172v-0.3896484c0-0.0800781,0.0400391-0.1201172,0.1201172-0.1201172h0.9892578
		v-1.7285156c0-0.0800781,0.0400391-0.1201172,0.1201172-0.1201172h0.4394531c0.0898438,0,0.1298828,0.0400391,0.1298828,0.1201172
		v1.7285156h1.7294922v-1.7285156c0-0.0800781,0.0498047-0.1201172,0.1298828-0.1201172h0.4394531
		c0.0800781,0,0.1298828,0.0400391,0.1298828,0.1201172v1.7285156h1.0693359c0.0800781,0,0.1201172,0.0400391,0.1201172,0.1201172
		v0.3896484c0,0.0800781-0.0400391,0.1201172-0.1201172,0.1201172h-1.0693359v2.5380859H242.7558594z M240.9873047,333.8515625
		v-2.5380859h-1.7294922v2.5380859H240.9873047z"/>
	<path fill="#4D4D4D" d="M249.3857422,332.5830078c0,2.9277344-0.5195313,3.7773438-2.6884766,3.7773438
		s-2.6777344-0.8496094-2.6777344-3.7773438c0-2.9287109,0.5087891-3.7978516,2.6777344-3.7978516
		S249.3857422,329.6542969,249.3857422,332.5830078z M244.7783203,332.5830078c0,2.4082031,0.3701172,3.1074219,1.9189453,3.1074219
		c1.5595703,0,1.9296875-0.6992188,1.9296875-3.1074219c0-2.3994141-0.3701172-3.1289063-1.9296875-3.1289063
		C245.1484375,329.4541016,244.7783203,330.1835938,244.7783203,332.5830078z"/>
	<path fill="#4D4D4D" d="M252.4785156,328.8349609c0.109375,0,0.1191406,0.0595703,0.0996094,0.1494141l-1.4091797,4.6875h2.6787109
		v-2.0986328c0-0.0703125,0.0292969-0.1298828,0.0898438-0.1503906l0.5195313-0.2099609
		c0.0996094-0.0390625,0.1601563-0.0195313,0.1601563,0.0800781v2.3789063h1.3095703
		c0.0996094,0,0.1396484,0.0400391,0.1396484,0.1201172v0.4199219c0,0.0996094-0.0400391,0.1298828-0.1396484,0.1298828h-1.3095703
		v1.8388672c0,0.0898438-0.0498047,0.1298828-0.1298828,0.1298828h-0.5097656c-0.0800781,0-0.1298828-0.0400391-0.1298828-0.1298828
		v-1.8388672h-3.3779297c-0.0800781,0-0.1298828-0.0302734-0.1298828-0.1298828v-0.2197266
		c0-0.1005859,0.0292969-0.2001953,0.0693359-0.3300781l1.4091797-4.7470703
		c0.0302734-0.0703125,0.0703125-0.0800781,0.1601563-0.0800781H252.4785156z"/>
	<path fill="#4D4D4D" d="M261.1171875,328.8349609c0.0800781,0,0.1298828,0.0292969,0.1298828,0.1201172v0.3193359
		c0,0.0800781-0.0302734,0.1298828-0.0595703,0.1894531l-3.4082031,6.7568359
		c-0.0302734,0.0595703-0.0800781,0.0898438-0.1503906,0.0898438h-0.5791016c-0.1103516,0-0.1298828-0.0703125-0.0908203-0.1503906
		l3.3486328-6.65625h-3.9980469c-0.0996094,0-0.1396484-0.0400391-0.1396484-0.1191406v-0.4296875
		c0-0.0908203,0.0400391-0.1201172,0.1396484-0.1201172H261.1171875z"/>
	<path fill="#4D4D4D" d="M264.7783203,328.8544922c0.0693359,0.0097656,0.109375,0.0498047,0.109375,0.1298828v0.3095703
		c0,0.0800781-0.0498047,0.1308594-0.1298828,0.1308594h-0.5693359c-0.5,0-0.8798828,0.0195313-0.8798828,0.5595703v0.9189453
		h1.3496094c0.0898438,0,0.1298828,0.0498047,0.109375,0.1503906l-0.0595703,0.3398438
		c-0.0205078,0.0800781-0.0595703,0.109375-0.1396484,0.109375h-1.2597656v4.6777344
		c0,0.0898438-0.0400391,0.1298828-0.1298828,0.1298828h-0.4697266c-0.0800781,0-0.1201172-0.0400391-0.1201172-0.1298828
		v-4.6777344h-0.7490234c-0.0800781,0-0.1298828-0.0400391-0.1298828-0.1201172v-0.3496094
		c0-0.0800781,0.0498047-0.1298828,0.1298828-0.1298828h0.7490234V329.84375c0-1.0488281,0.9296875-1.0693359,1.3496094-1.0693359
		C264.2177734,328.7744141,264.5576172,328.8144531,264.7783203,328.8544922z"/>
	<path fill="#4D4D4D" d="M270.0869141,328.8349609c0.0800781,0,0.1298828,0.0292969,0.1298828,0.1201172v0.3193359
		c0,0.0800781-0.0302734,0.1298828-0.0595703,0.1894531l-3.4082031,6.7568359
		c-0.0302734,0.0595703-0.0800781,0.0898438-0.1503906,0.0898438h-0.5791016c-0.1103516,0-0.1308594-0.0703125-0.0908203-0.1503906
		l3.3486328-6.65625h-3.9980469c-0.0996094,0-0.1396484-0.0400391-0.1396484-0.1191406v-0.4296875
		c0-0.0908203,0.0400391-0.1201172,0.1396484-0.1201172H270.0869141z"/>
	<path fill="#4D4D4D" d="M274.7070313,330.9238281c0.0800781,0.0097656,0.1201172,0.0595703,0.1201172,0.1298828v0.3095703
		c0,0.0898438-0.0498047,0.1298828-0.1298828,0.1298828h-1.4697266c-1.2988281,0-1.4990234,0.4199219-1.4990234,2.1083984
		c0,1.6894531,0.2001953,2.1191406,1.4990234,2.1191406h1.4697266c0.0800781,0,0.1298828,0.0400391,0.1298828,0.1298828v0.3095703
		c0,0.0703125-0.0400391,0.1201172-0.1201172,0.1308594c-0.4697266,0.0498047-1.0996094,0.0693359-1.4794922,0.0693359
		c-1.8388672,0-2.21875-0.5498047-2.21875-2.7587891c0-2.1982422,0.3798828-2.7480469,2.21875-2.7480469
		C273.6074219,330.8535156,274.2373047,330.8632813,274.7070313,330.9238281z"/>
</g>
<g>
	<path fill="#4D4D4D" d="M293.7158203,333.8515625c0.0800781,0,0.1298828,0.0400391,0.1298828,0.1298828v0.3798828
		c0,0.0898438-0.0498047,0.1298828-0.1298828,0.1298828h-1.0693359v1.6894531c0,0.0898438-0.0498047,0.1298828-0.1298828,0.1298828
		h-0.4394531c-0.0800781,0-0.1298828-0.0400391-0.1298828-0.1298828v-1.6894531h-1.7294922v1.6894531
		c0,0.0898438-0.0400391,0.1298828-0.1298828,0.1298828h-0.4394531c-0.0800781,0-0.1201172-0.0400391-0.1201172-0.1298828
		v-1.6894531h-0.9794922c-0.0898438,0-0.1298828-0.0400391-0.1298828-0.1298828v-0.3798828
		c0-0.0898438,0.0400391-0.1298828,0.1298828-0.1298828h0.9794922v-2.5380859h-0.9892578
		c-0.0800781,0-0.1201172-0.0400391-0.1201172-0.1201172v-0.3896484c0-0.0800781,0.0400391-0.1201172,0.1201172-0.1201172h0.9892578
		v-1.7285156c0-0.0800781,0.0400391-0.1201172,0.1201172-0.1201172h0.4394531c0.0898438,0,0.1298828,0.0400391,0.1298828,0.1201172
		v1.7285156h1.7294922v-1.7285156c0-0.0800781,0.0498047-0.1201172,0.1298828-0.1201172h0.4394531
		c0.0800781,0,0.1298828,0.0400391,0.1298828,0.1201172v1.7285156h1.0693359c0.0800781,0,0.1201172,0.0400391,0.1201172,0.1201172
		v0.3896484c0,0.0800781-0.0400391,0.1201172-0.1201172,0.1201172h-1.0693359v2.5380859H293.7158203z M291.9472656,333.8515625
		v-2.5380859h-1.7294922v2.5380859H291.9472656z"/>
	<path fill="#4D4D4D" d="M298.2470703,335.640625c0.0800781,0,0.1298828,0.0400391,0.1298828,0.1201172v0.4199219
		c0,0.0898438-0.0498047,0.1298828-0.1298828,0.1298828h-3.2578125c-0.0800781,0-0.1201172-0.0400391-0.1201172-0.1298828
		v-0.4199219c0-0.0800781,0.0400391-0.1201172,0.1201172-0.1201172h1.2890625v-5.6162109
		c0-0.4804688-0.2597656-0.5703125-0.8798828-0.5703125h-0.5498047c-0.0898438,0.0097656-0.1396484-0.0400391-0.1396484-0.1201172
		v-0.3291016c0-0.0703125,0.0400391-0.1005859,0.1201172-0.1298828c0.1796875-0.0605469,0.4892578-0.0898438,0.7294922-0.0898438
		c0.4794922,0,1.4794922,0.0097656,1.4794922,1.0585938v5.796875H298.2470703z"/>
	<path fill="#4D4D4D" d="M302.8369141,330.9238281c0.0800781,0.0097656,0.1201172,0.0595703,0.1201172,0.1298828v0.3095703
		c0,0.0898438-0.0498047,0.1298828-0.1298828,0.1298828h-1.4697266c-1.2988281,0-1.4990234,0.4199219-1.4990234,2.1083984
		c0,1.6894531,0.2001953,2.1191406,1.4990234,2.1191406h1.4697266c0.0800781,0,0.1298828,0.0400391,0.1298828,0.1298828v0.3095703
		c0,0.0703125-0.0400391,0.1201172-0.1201172,0.1308594c-0.4697266,0.0498047-1.0996094,0.0693359-1.4794922,0.0693359
		c-1.8388672,0-2.21875-0.5498047-2.21875-2.7587891c0-2.1982422,0.3798828-2.7480469,2.21875-2.7480469
		C301.7373047,330.8535156,302.3671875,330.8632813,302.8369141,330.9238281z"/>
	<path fill="#4D4D4D" d="M307.8466797,332.4023438v3.4980469c0,0.0800781,0.0097656,0.1904297-0.1796875,0.2597656
		c-0.3095703,0.1201172-1.2392578,0.2001953-2.1289063,0.2001953c-1.3095703,0-1.8291016-0.3300781-1.8291016-1.5791016
		c0-1.0996094,0.5595703-1.4794922,1.6689453-1.4794922h1.7490234v-0.7890625c0-0.75-0.4990234-1.0195313-1.4785156-1.0195313
		h-1.3496094c-0.0996094,0-0.1298828-0.0302734-0.1298828-0.1298828v-0.2802734
		c0-0.0996094,0.0302734-0.1191406,0.1201172-0.1396484c0.5498047-0.0800781,0.9990234-0.0898438,1.359375-0.0898438
		C307.0273438,330.8535156,307.8466797,331.2431641,307.8466797,332.4023438z M305.3779297,333.9316406
		c-0.6494141,0-0.9492188,0.2197266-0.9492188,0.8496094c0,0.7392578,0.3300781,0.9492188,1.2695313,0.9492188
		c0.3095703,0,1.0087891-0.0195313,1.4287109-0.1298828v-1.6689453H305.3779297z"/>
	<path fill="#4D4D4D" d="M312.8271484,330.9238281c0.0800781,0.0097656,0.1201172,0.0595703,0.1201172,0.1298828v0.3095703
		c0,0.0898438-0.0498047,0.1298828-0.1298828,0.1298828h-1.4697266c-1.2988281,0-1.4990234,0.4199219-1.4990234,2.1083984
		c0,1.6894531,0.2001953,2.1191406,1.4990234,2.1191406h1.4697266c0.0800781,0,0.1298828,0.0400391,0.1298828,0.1298828v0.3095703
		c0,0.0703125-0.0400391,0.1201172-0.1201172,0.1308594c-0.4697266,0.0498047-1.0996094,0.0693359-1.4794922,0.0693359
		c-1.8388672,0-2.21875-0.5498047-2.21875-2.7587891c0-2.1982422,0.3798828-2.7480469,2.21875-2.7480469
		C311.7275391,330.8535156,312.3574219,330.8632813,312.8271484,330.9238281z"/>
	<path fill="#4D4D4D" d="M317.8369141,332.4023438v3.4980469c0,0.0800781,0.0097656,0.1904297-0.1796875,0.2597656
		c-0.3095703,0.1201172-1.2392578,0.2001953-2.1289063,0.2001953c-1.3095703,0-1.8291016-0.3300781-1.8291016-1.5791016
		c0-1.0996094,0.5595703-1.4794922,1.6689453-1.4794922h1.7490234v-0.7890625c0-0.75-0.4990234-1.0195313-1.4785156-1.0195313
		h-1.3496094c-0.0996094,0-0.1298828-0.0302734-0.1298828-0.1298828v-0.2802734
		c0-0.0996094,0.0302734-0.1191406,0.1201172-0.1396484c0.5498047-0.0800781,0.9990234-0.0898438,1.359375-0.0898438
		C317.0175781,330.8535156,317.8369141,331.2431641,317.8369141,332.4023438z M315.3681641,333.9316406
		c-0.6494141,0-0.9492188,0.2197266-0.9492188,0.8496094c0,0.7392578,0.3300781,0.9492188,1.2695313,0.9492188
		c0.3095703,0,1.0087891-0.0195313,1.4287109-0.1298828v-1.6689453H315.3681641z"/>
	<path fill="#4D4D4D" d="M319.8886719,328.8349609c0.0800781,0,0.1298828,0.0498047,0.1298828,0.1298828v1.9482422
		c0.3505859-0.0400391,0.8095703-0.0595703,1.3798828-0.0595703c1.9091797,0,2.2587891,0.5400391,2.2587891,2.7480469
		c0,2.2089844-0.3398438,2.7587891-2.1992188,2.7587891c-0.6894531,0-1.109375-0.0195313-2.0283203-0.1601563
		c-0.1005859-0.0097656-0.140625-0.0498047-0.140625-0.1494141v-7.0859375c0-0.0800781,0.0507813-0.1298828,0.1298828-0.1298828
		H319.8886719z M320.0185547,331.4931641v4.1279297c0.5205078,0.0693359,1.0097656,0.0996094,1.4394531,0.0996094
		c1.3193359,0,1.4794922-0.4296875,1.4794922-2.1289063c0-1.6884766-0.1699219-2.0986328-1.5390625-2.0986328H320.0185547z"/>
</g>
<g>
	<path fill="#4D4D4D" d="M342.7861328,333.8515625c0.0800781,0,0.1298828,0.0400391,0.1298828,0.1298828v0.3798828
		c0,0.0898438-0.0498047,0.1298828-0.1298828,0.1298828h-1.0693359v1.6894531c0,0.0898438-0.0498047,0.1298828-0.1298828,0.1298828
		h-0.4394531c-0.0800781,0-0.1298828-0.0400391-0.1298828-0.1298828v-1.6894531h-1.7294922v1.6894531
		c0,0.0898438-0.0400391,0.1298828-0.1298828,0.1298828H338.71875c-0.0800781,0-0.1201172-0.0400391-0.1201172-0.1298828v-1.6894531
		h-0.9794922c-0.0898438,0-0.1298828-0.0400391-0.1298828-0.1298828v-0.3798828
		c0-0.0898438,0.0400391-0.1298828,0.1298828-0.1298828h0.9794922v-2.5380859h-0.9892578
		c-0.0800781,0-0.1201172-0.0400391-0.1201172-0.1201172v-0.3896484c0-0.0800781,0.0400391-0.1201172,0.1201172-0.1201172h0.9892578
		v-1.7285156c0-0.0800781,0.0400391-0.1201172,0.1201172-0.1201172h0.4394531c0.0898438,0,0.1298828,0.0400391,0.1298828,0.1201172
		v1.7285156h1.7294922v-1.7285156c0-0.0800781,0.0498047-0.1201172,0.1298828-0.1201172h0.4394531
		c0.0800781,0,0.1298828,0.0400391,0.1298828,0.1201172v1.7285156h1.0693359c0.0800781,0,0.1201172,0.0400391,0.1201172,0.1201172
		v0.3896484c0,0.0800781-0.0400391,0.1201172-0.1201172,0.1201172h-1.0693359v2.5380859H342.7861328z M341.0175781,333.8515625
		v-2.5380859h-1.7294922v2.5380859H341.0175781z"/>
	<path fill="#4D4D4D" d="M347.9570313,332.4023438v3.4980469c0,0.0800781,0.0097656,0.1904297-0.1796875,0.2597656
		c-0.3095703,0.1201172-1.2392578,0.2001953-2.1289063,0.2001953c-1.3095703,0-1.8291016-0.3300781-1.8291016-1.5791016
		c0-1.0996094,0.5595703-1.4794922,1.6689453-1.4794922h1.7490234v-0.7890625c0-0.75-0.4990234-1.0195313-1.4785156-1.0195313
		h-1.3496094c-0.0996094,0-0.1298828-0.0302734-0.1298828-0.1298828v-0.2802734
		c0-0.0996094,0.0302734-0.1191406,0.1201172-0.1396484c0.5498047-0.0800781,0.9990234-0.0898438,1.359375-0.0898438
		C347.1376953,330.8535156,347.9570313,331.2431641,347.9570313,332.4023438z M345.4882813,333.9316406
		c-0.6494141,0-0.9492188,0.2197266-0.9492188,0.8496094c0,0.7392578,0.3300781,0.9492188,1.2695313,0.9492188
		c0.3095703,0,1.0087891-0.0195313,1.4287109-0.1298828v-1.6689453H345.4882813z"/>
	<path fill="#4D4D4D" d="M352.5576172,335.640625c0.0800781,0,0.1298828,0.0400391,0.1298828,0.1201172v0.4199219
		c0,0.0898438-0.0498047,0.1298828-0.1298828,0.1298828h-3.2578125c-0.0800781,0-0.1201172-0.0400391-0.1201172-0.1298828
		v-0.4199219c0-0.0800781,0.0400391-0.1201172,0.1201172-0.1201172h1.2890625v-5.6162109
		c0-0.4804688-0.2597656-0.5703125-0.8798828-0.5703125h-0.5498047c-0.0898438,0.0097656-0.1396484-0.0400391-0.1396484-0.1201172
		v-0.3291016c0-0.0703125,0.0400391-0.1005859,0.1201172-0.1298828c0.1796875-0.0605469,0.4892578-0.0898438,0.7294922-0.0898438
		c0.4794922,0,1.4794922,0.0097656,1.4794922,1.0585938v5.796875H352.5576172z"/>
	<path fill="#4D4D4D" d="M357.6875,328.8349609c0.0898438,0,0.1298828,0.0498047,0.1298828,0.1298828v7.0859375
		c0,0.0996094-0.0400391,0.1396484-0.1396484,0.1494141c-0.9199219,0.140625-1.3398438,0.1601563-2.0292969,0.1601563
		c-1.8486328,0-2.1992188-0.5390625-2.1992188-2.7587891c0-2.2080078,0.3505859-2.7480469,2.2695313-2.7480469
		c0.5595703,0,1.0185547,0.0195313,1.3789063,0.0595703v-1.9482422c0-0.0800781,0.0400391-0.1298828,0.1201172-0.1298828H357.6875z
		 M355.71875,331.4931641c-1.3798828,0-1.5400391,0.4101563-1.5400391,2.0986328
		c0,1.7089844,0.1601563,2.1289063,1.4697266,2.1289063c0.4296875,0,0.9189453-0.0302734,1.4492188-0.0996094v-4.1279297H355.71875z
		"/>
	<path fill="#4D4D4D" d="M363.0869141,332.4023438v3.4980469c0,0.0800781,0.0097656,0.1904297-0.1796875,0.2597656
		c-0.3095703,0.1201172-1.2392578,0.2001953-2.1289063,0.2001953c-1.3095703,0-1.8291016-0.3300781-1.8291016-1.5791016
		c0-1.0996094,0.5595703-1.4794922,1.6689453-1.4794922h1.7490234v-0.7890625c0-0.75-0.4990234-1.0195313-1.4785156-1.0195313
		h-1.3496094c-0.0996094,0-0.1298828-0.0302734-0.1298828-0.1298828v-0.2802734
		c0-0.0996094,0.0302734-0.1191406,0.1201172-0.1396484c0.5498047-0.0800781,0.9990234-0.0898438,1.359375-0.0898438
		C362.2675781,330.8535156,363.0869141,331.2431641,363.0869141,332.4023438z M360.6181641,333.9316406
		c-0.6494141,0-0.9492188,0.2197266-0.9492188,0.8496094c0,0.7392578,0.3300781,0.9492188,1.2695313,0.9492188
		c0.3095703,0,1.0087891-0.0195313,1.4287109-0.1298828v-1.6689453H360.6181641z"/>
	<path fill="#4D4D4D" d="M368.6074219,328.8349609c0.0898438,0,0.1298828,0.0498047,0.1298828,0.1298828v7.0859375
		c0,0.0996094-0.0400391,0.1396484-0.1396484,0.1494141c-0.9199219,0.140625-1.3398438,0.1601563-2.0292969,0.1601563
		c-1.8486328,0-2.1992188-0.5390625-2.1992188-2.7587891c0-2.2080078,0.3505859-2.7480469,2.2695313-2.7480469
		c0.5595703,0,1.0185547,0.0195313,1.3789063,0.0595703v-1.9482422c0-0.0800781,0.0400391-0.1298828,0.1201172-0.1298828
		H368.6074219z M366.6386719,331.4931641c-1.3798828,0-1.5400391,0.4101563-1.5400391,2.0986328
		c0,1.7089844,0.1601563,2.1289063,1.4697266,2.1289063c0.4296875,0,0.9189453-0.0302734,1.4492188-0.0996094v-4.1279297
		H366.6386719z"/>
	<path fill="#4D4D4D" d="M370.8183594,328.8349609c0.0800781,0,0.1298828,0.0498047,0.1298828,0.1298828v1.9482422
		c0.3505859-0.0400391,0.8095703-0.0595703,1.3798828-0.0595703c1.9091797,0,2.2587891,0.5400391,2.2587891,2.7480469
		c0,2.2089844-0.3398438,2.7587891-2.1992188,2.7587891c-0.6894531,0-1.109375-0.0195313-2.0283203-0.1601563
		c-0.1005859-0.0097656-0.140625-0.0498047-0.140625-0.1494141v-7.0859375c0-0.0800781,0.0507813-0.1298828,0.1298828-0.1298828
		H370.8183594z M370.9482422,331.4931641v4.1279297c0.5205078,0.0693359,1.0097656,0.0996094,1.4394531,0.0996094
		c1.3193359,0,1.4794922-0.4296875,1.4794922-2.1289063c0-1.6884766-0.1699219-2.0986328-1.5390625-2.0986328H370.9482422z"/>
</g>
<g>
	<path fill="#4D4D4D" d="M140.5351563,433.8515625c0.0800781,0,0.1298828,0.0400391,0.1298828,0.1298828v0.3798828
		c0,0.0898438-0.0498047,0.1298828-0.1298828,0.1298828h-1.0693359v1.6894531c0,0.0898438-0.0498047,0.1298828-0.1298828,0.1298828
		h-0.4394531c-0.0800781,0-0.1298828-0.0400391-0.1298828-0.1298828v-1.6894531h-1.7294922v1.6894531
		c0,0.0898438-0.0400391,0.1298828-0.1298828,0.1298828h-0.4394531c-0.0800781,0-0.1201172-0.0400391-0.1201172-0.1298828
		v-1.6894531h-0.9794922c-0.0898438,0-0.1298828-0.0400391-0.1298828-0.1298828v-0.3798828
		c0-0.0898438,0.0400391-0.1298828,0.1298828-0.1298828h0.9794922v-2.5380859h-0.9892578
		c-0.0800781,0-0.1201172-0.0400391-0.1201172-0.1201172v-0.3896484c0-0.0800781,0.0400391-0.1201172,0.1201172-0.1201172h0.9892578
		v-1.7285156c0-0.0800781,0.0400391-0.1201172,0.1201172-0.1201172h0.4394531c0.0898438,0,0.1298828,0.0400391,0.1298828,0.1201172
		v1.7285156h1.7294922v-1.7285156c0-0.0800781,0.0498047-0.1201172,0.1298828-0.1201172h0.4394531
		c0.0800781,0,0.1298828,0.0400391,0.1298828,0.1201172v1.7285156h1.0693359c0.0800781,0,0.1201172,0.0400391,0.1201172,0.1201172
		v0.3896484c0,0.0800781-0.0400391,0.1201172-0.1201172,0.1201172h-1.0693359v2.5380859H140.5351563z M138.7666016,433.8515625
		v-2.5380859h-1.7294922v2.5380859H138.7666016z"/>
	<path fill="#4D4D4D" d="M147.1650391,432.5830078c0,2.9277344-0.5195313,3.7773438-2.6884766,3.7773438
		s-2.6777344-0.8496094-2.6777344-3.7773438c0-2.9287109,0.5087891-3.7978516,2.6777344-3.7978516
		S147.1650391,429.6542969,147.1650391,432.5830078z M142.5576172,432.5830078c0,2.4082031,0.3701172,3.1074219,1.9189453,3.1074219
		c1.5595703,0,1.9296875-0.6992188,1.9296875-3.1074219c0-2.3994141-0.3701172-3.1289063-1.9296875-3.1289063
		C142.9277344,429.4541016,142.5576172,430.1835938,142.5576172,432.5830078z"/>
	<path fill="#4D4D4D" d="M151.0273438,428.7851563c1.5791016,0,2.3085938,0.6494141,2.3085938,2.0488281
		c0,0.8789063-0.2802734,1.4189453-0.9296875,1.7988281c0.7792969,0.3398438,1.109375,0.859375,1.109375,1.7089844
		c0,1.3691406-0.8193359,2.0185547-2.4990234,2.0185547h-0.1699219c-1.6982422,0-2.4980469-0.6494141-2.4980469-2.0585938
		c0-0.7099609,0.4199219-1.4091797,1.1396484-1.8486328c-0.5898438-0.3105469-0.9296875-0.8496094-0.9296875-1.6191406
		c0-1.3994141,0.7392578-2.0488281,2.3183594-2.0488281H151.0273438z M150.2070313,432.7529297
		c-0.7890625,0.4091797-1.0986328,0.9091797-1.0986328,1.5791016c0,0.9189453,0.5791016,1.3583984,1.7382813,1.3583984h0.1699219
		c1.1894531,0,1.7392578-0.4697266,1.7392578-1.2988281c0-0.8193359-0.5390625-1.109375-1.1894531-1.2695313
		L150.2070313,432.7529297z M150.8769531,429.4541016c-1.0195313,0-1.5488281,0.4296875-1.5488281,1.2792969
		c0,0.8095703,0.5,1.1396484,1.0996094,1.3398438l1.2490234,0.3095703c0.6298828-0.3701172,0.8994141-0.859375,0.8994141-1.5488281
		c0-0.9394531-0.5-1.3798828-1.5488281-1.3798828H150.8769531z"/>
	<path fill="#4D4D4D" d="M159.3261719,430.4833984v0.6103516c0,0.6796875-0.1103516,1.2685547-0.8701172,1.6484375
		l-2.3886719,1.3095703c-0.609375,0.3398438-0.7890625,0.5996094-0.7890625,1.1191406v0.4697266h4.0078125
		c0.0595703,0,0.0703125,0.0107422,0.0703125,0.0498047v0.5605469c0,0.0498047-0.0205078,0.0595703-0.0605469,0.0595703h-4.5371094
		c-0.2001953,0-0.25-0.1103516-0.25-0.2802734v-0.859375c0-0.7890625,0.2792969-1.21875,1.1992188-1.7089844l2.4082031-1.3193359
		c0.390625-0.2197266,0.4404297-0.5898438,0.4404297-1.0488281v-0.6103516c0-0.9189453-0.859375-1.0292969-1.8193359-1.0292969
		h-1.7792969c-0.0498047,0-0.0693359-0.0097656-0.0693359-0.0595703v-0.4296875
		c0-0.0498047,0.0195313-0.0703125,0.0595703-0.0800781c0.75-0.0703125,1.0996094-0.0996094,1.7890625-0.0996094
		C158.0966797,428.7851563,159.3261719,428.9550781,159.3261719,430.4833984z"/>
	<path fill="#4D4D4D" d="M165.0556641,428.8349609c0.0800781,0,0.1298828,0.0400391,0.1298828,0.1201172v0.4189453
		c0,0.0898438-0.0498047,0.1298828-0.1298828,0.1298828h-3.5576172l-0.1601563,2.3994141
		c0.3701172-0.0107422,0.7792969-0.0205078,1.0097656-0.0205078c2.2587891,0,2.9882813,0.4003906,3.0078125,2.1289063v0.2402344
		c-0.0195313,1.7089844-0.7490234,2.1083984-3.0078125,2.1083984c-0.3798828,0-1.1699219-0.0097656-1.6689453-0.0400391
		c-0.0800781,0-0.1201172-0.0400391-0.1201172-0.0800781v-0.4697266c0-0.0595703,0.0400391-0.0800781,0.1201172-0.0800781h1.7783203
		c1.5498047,0,2.1289063-0.2792969,2.1289063-1.4287109v-0.2294922c-0.0097656-1.1699219-0.5693359-1.4794922-2.1289063-1.4794922
		h-1.7783203c-0.0800781,0-0.1201172-0.0302734-0.1201172-0.0800781v-0.4794922l0.1796875-3.0185547
		c0-0.0898438,0.0498047-0.1396484,0.1503906-0.1396484H165.0556641z"/>
	<path fill="#4D4D4D" d="M171.1259766,430.4833984v0.6103516c0,0.6796875-0.1103516,1.2685547-0.8701172,1.6484375
		l-2.3886719,1.3095703c-0.609375,0.3398438-0.7890625,0.5996094-0.7890625,1.1191406v0.4697266h4.0078125
		c0.0595703,0,0.0703125,0.0107422,0.0703125,0.0498047v0.5605469c0,0.0498047-0.0205078,0.0595703-0.0605469,0.0595703h-4.5371094
		c-0.2001953,0-0.25-0.1103516-0.25-0.2802734v-0.859375c0-0.7890625,0.2792969-1.21875,1.1992188-1.7089844l2.4082031-1.3193359
		c0.390625-0.2197266,0.4404297-0.5898438,0.4404297-1.0488281v-0.6103516c0-0.9189453-0.859375-1.0292969-1.8193359-1.0292969
		h-1.7792969c-0.0498047,0-0.0693359-0.0097656-0.0693359-0.0595703v-0.4296875
		c0-0.0498047,0.0195313-0.0703125,0.0595703-0.0800781c0.75-0.0703125,1.0996094-0.0996094,1.7890625-0.0996094
		C169.8964844,428.7851563,171.1259766,428.9550781,171.1259766,430.4833984z"/>
	<path fill="#4D4D4D" d="M176.5361328,428.8349609c0.0898438,0,0.1298828,0.0498047,0.1298828,0.1298828v7.0859375
		c0,0.0996094-0.0400391,0.1396484-0.140625,0.1494141c-0.9189453,0.140625-1.3388672,0.1601563-2.0283203,0.1601563
		c-1.8486328,0-2.1992188-0.5390625-2.1992188-2.7587891c0-2.2080078,0.3505859-2.7480469,2.2695313-2.7480469
		c0.5595703,0,1.0185547,0.0195313,1.3789063,0.0595703v-1.9482422c0-0.0800781,0.0400391-0.1298828,0.1201172-0.1298828
		H176.5361328z M174.5673828,431.4931641c-1.3798828,0-1.5400391,0.4101563-1.5400391,2.0986328
		c0,1.7089844,0.1601563,2.1289063,1.4697266,2.1289063c0.4296875,0,0.9189453-0.0302734,1.4492188-0.0996094v-4.1279297
		H174.5673828z"/>
</g>
<g>
	<path fill="#4D4D4D" d="M190.5107422,433.8515625c0.0800781,0,0.1298828,0.0400391,0.1298828,0.1298828v0.3798828
		c0,0.0898438-0.0498047,0.1298828-0.1298828,0.1298828h-1.0693359v1.6894531c0,0.0898438-0.0498047,0.1298828-0.1298828,0.1298828
		h-0.4394531c-0.0800781,0-0.1298828-0.0400391-0.1298828-0.1298828v-1.6894531h-1.7294922v1.6894531
		c0,0.0898438-0.0400391,0.1298828-0.1298828,0.1298828h-0.4394531c-0.0800781,0-0.1201172-0.0400391-0.1201172-0.1298828
		v-1.6894531H185.34375c-0.0898438,0-0.1298828-0.0400391-0.1298828-0.1298828v-0.3798828
		c0-0.0898438,0.0400391-0.1298828,0.1298828-0.1298828h0.9794922v-2.5380859h-0.9892578
		c-0.0800781,0-0.1201172-0.0400391-0.1201172-0.1201172v-0.3896484c0-0.0800781,0.0400391-0.1201172,0.1201172-0.1201172h0.9892578
		v-1.7285156c0-0.0800781,0.0400391-0.1201172,0.1201172-0.1201172h0.4394531c0.0898438,0,0.1298828,0.0400391,0.1298828,0.1201172
		v1.7285156h1.7294922v-1.7285156c0-0.0800781,0.0498047-0.1201172,0.1298828-0.1201172h0.4394531
		c0.0800781,0,0.1298828,0.0400391,0.1298828,0.1201172v1.7285156h1.0693359c0.0800781,0,0.1201172,0.0400391,0.1201172,0.1201172
		v0.3896484c0,0.0800781-0.0400391,0.1201172-0.1201172,0.1201172h-1.0693359v2.5380859H190.5107422z M188.7421875,433.8515625
		v-2.5380859h-1.7294922v2.5380859H188.7421875z"/>
	<path fill="#4D4D4D" d="M193.6132813,428.8349609c0.109375,0,0.1191406,0.0595703,0.0996094,0.1494141l-1.4091797,4.6875h2.6787109
		v-2.0986328c0-0.0703125,0.0292969-0.1298828,0.0898438-0.1503906l0.5195313-0.2099609
		c0.0996094-0.0390625,0.1601563-0.0195313,0.1601563,0.0800781v2.3789063h1.3095703
		c0.0996094,0,0.1396484,0.0400391,0.1396484,0.1201172v0.4199219c0,0.0996094-0.0400391,0.1298828-0.1396484,0.1298828h-1.3095703
		v1.8388672c0,0.0898438-0.0498047,0.1298828-0.1298828,0.1298828h-0.5097656c-0.0800781,0-0.1298828-0.0400391-0.1298828-0.1298828
		v-1.8388672h-3.3779297c-0.0800781,0-0.1298828-0.0302734-0.1298828-0.1298828v-0.2197266
		c0-0.1005859,0.0292969-0.2001953,0.0693359-0.3300781l1.4091797-4.7470703
		c0.0302734-0.0703125,0.0703125-0.0800781,0.1601563-0.0800781H193.6132813z"/>
	<path fill="#4D4D4D" d="M202.5517578,430.7138672v0.1992188c0,0.8798828-0.3398438,1.4697266-0.9501953,1.6494141
		c0.6201172,0.2001953,0.9501953,0.7792969,0.9501953,1.6494141v0.1699219c0,1.6191406-0.7099609,1.9785156-3.0087891,1.9785156
		c-0.3798828,0-0.9492188-0.0195313-1.4492188-0.0595703c-0.0693359-0.0097656-0.1201172-0.0097656-0.1201172-0.0498047v-0.4902344
		c0-0.0498047,0.0507813-0.0703125,0.1298828-0.0703125h1.5097656c1.6591797,0,2.1689453-0.2490234,2.1689453-1.3291016v-0.109375
		c-0.0107422-1-0.3701172-1.3496094-1.4892578-1.3496094h-1.8291016c-0.0898438,0-0.1103516-0.0302734-0.1103516-0.0996094
		v-0.4599609c0-0.0703125,0.0205078-0.0996094,0.1103516-0.0996094h1.8193359c1.1191406,0,1.4990234-0.3398438,1.4990234-1.3701172
		v-0.1796875c0-1.0791016-0.5996094-1.2392578-2.2392578-1.2392578h-1.4394531
		c-0.0791016,0-0.1298828-0.0195313-0.1298828-0.0693359v-0.4697266c0-0.0507813,0.0507813-0.0703125,0.1201172-0.0703125
		c0.5-0.0498047,1.0693359-0.0595703,1.4492188-0.0595703C201.8017578,428.7851563,202.5517578,429.0947266,202.5517578,430.7138672
		z"/>
	<path fill="#4D4D4D" d="M205.6728516,428.8349609c0.109375,0,0.1191406,0.0595703,0.0996094,0.1494141l-1.4091797,4.6875h2.6787109
		v-2.0986328c0-0.0703125,0.0292969-0.1298828,0.0898438-0.1503906l0.5195313-0.2099609
		c0.0996094-0.0390625,0.1601563-0.0195313,0.1601563,0.0800781v2.3789063h1.3095703
		c0.0996094,0,0.1396484,0.0400391,0.1396484,0.1201172v0.4199219c0,0.0996094-0.0400391,0.1298828-0.1396484,0.1298828h-1.3095703
		v1.8388672c0,0.0898438-0.0498047,0.1298828-0.1298828,0.1298828h-0.5097656c-0.0800781,0-0.1298828-0.0400391-0.1298828-0.1298828
		v-1.8388672h-3.3779297c-0.0800781,0-0.1308594-0.0302734-0.1308594-0.1298828v-0.2197266
		c0-0.1005859,0.0302734-0.2001953,0.0703125-0.3300781l1.4091797-4.7470703
		c0.0302734-0.0703125,0.0703125-0.0800781,0.1601563-0.0800781H205.6728516z"/>
	<path fill="#4D4D4D" d="M214.3115234,428.8349609c0.0898438,0,0.1298828,0.0498047,0.1298828,0.1298828v7.0859375
		c0,0.0996094-0.0400391,0.1396484-0.140625,0.1494141c-0.9189453,0.140625-1.3388672,0.1601563-2.0283203,0.1601563
		c-1.8486328,0-2.1992188-0.5390625-2.1992188-2.7587891c0-2.2080078,0.3505859-2.7480469,2.2695313-2.7480469
		c0.5595703,0,1.0185547,0.0195313,1.3789063,0.0595703v-1.9482422c0-0.0800781,0.0400391-0.1298828,0.1201172-0.1298828
		H214.3115234z M212.3427734,431.4931641c-1.3798828,0-1.5400391,0.4101563-1.5400391,2.0986328
		c0,1.7089844,0.1601563,2.1289063,1.4697266,2.1289063c0.4296875,0,0.9189453-0.0302734,1.4492188-0.0996094v-4.1279297
		H212.3427734z"/>
	<path fill="#4D4D4D" d="M220.3105469,428.8349609c0.0800781,0,0.1298828,0.0400391,0.1298828,0.1201172v0.4189453
		c0,0.0898438-0.0498047,0.1298828-0.1298828,0.1298828h-3.5576172l-0.1601563,2.3994141
		c0.3701172-0.0107422,0.7792969-0.0205078,1.0097656-0.0205078c2.2587891,0,2.9882813,0.4003906,3.0078125,2.1289063v0.2402344
		c-0.0195313,1.7089844-0.7490234,2.1083984-3.0078125,2.1083984c-0.3798828,0-1.1699219-0.0097656-1.6689453-0.0400391
		c-0.0800781,0-0.1201172-0.0400391-0.1201172-0.0800781v-0.4697266c0-0.0595703,0.0400391-0.0800781,0.1201172-0.0800781h1.7783203
		c1.5498047,0,2.1289063-0.2792969,2.1289063-1.4287109v-0.2294922c-0.0097656-1.1699219-0.5693359-1.4794922-2.1289063-1.4794922
		h-1.7783203c-0.0800781,0-0.1201172-0.0302734-0.1201172-0.0800781v-0.4794922l0.1796875-3.0185547
		c0-0.0898438,0.0498047-0.1396484,0.1494141-0.1396484H220.3105469z"/>
	<path fill="#4D4D4D" d="M223.6025391,428.8349609c0.109375,0,0.1191406,0.0595703,0.0996094,0.1494141l-1.4091797,4.6875h2.6787109
		v-2.0986328c0-0.0703125,0.0292969-0.1298828,0.0898438-0.1503906l0.5195313-0.2099609
		c0.0996094-0.0390625,0.1601563-0.0195313,0.1601563,0.0800781v2.3789063h1.3095703
		c0.0996094,0,0.1396484,0.0400391,0.1396484,0.1201172v0.4199219c0,0.0996094-0.0400391,0.1298828-0.1396484,0.1298828h-1.3095703
		v1.8388672c0,0.0898438-0.0498047,0.1298828-0.1298828,0.1298828h-0.5097656c-0.0800781,0-0.1298828-0.0400391-0.1298828-0.1298828
		v-1.8388672H221.59375c-0.0800781,0-0.1308594-0.0302734-0.1308594-0.1298828v-0.2197266
		c0-0.1005859,0.0302734-0.2001953,0.0703125-0.3300781l1.4091797-4.7470703
		c0.0302734-0.0703125,0.0703125-0.0800781,0.1601563-0.0800781H223.6025391z"/>
</g>
<g>
	<path fill="#4D4D4D" d="M241.3105469,433.8515625c0.0800781,0,0.1298828,0.0400391,0.1298828,0.1298828v0.3798828
		c0,0.0898438-0.0498047,0.1298828-0.1298828,0.1298828h-1.0693359v1.6894531c0,0.0898438-0.0498047,0.1298828-0.1298828,0.1298828
		h-0.4394531c-0.0800781,0-0.1298828-0.0400391-0.1298828-0.1298828v-1.6894531H237.8125v1.6894531
		c0,0.0898438-0.0400391,0.1298828-0.1298828,0.1298828h-0.4394531c-0.0800781,0-0.1201172-0.0400391-0.1201172-0.1298828
		v-1.6894531h-0.9794922c-0.0898438,0-0.1298828-0.0400391-0.1298828-0.1298828v-0.3798828
		c0-0.0898438,0.0400391-0.1298828,0.1298828-0.1298828h0.9794922v-2.5380859h-0.9892578
		c-0.0800781,0-0.1201172-0.0400391-0.1201172-0.1201172v-0.3896484c0-0.0800781,0.0400391-0.1201172,0.1201172-0.1201172h0.9892578
		v-1.7285156c0-0.0800781,0.0400391-0.1201172,0.1201172-0.1201172h0.4394531c0.0898438,0,0.1298828,0.0400391,0.1298828,0.1201172
		v1.7285156h1.7294922v-1.7285156c0-0.0800781,0.0498047-0.1201172,0.1298828-0.1201172h0.4394531
		c0.0800781,0,0.1298828,0.0400391,0.1298828,0.1201172v1.7285156h1.0693359c0.0800781,0,0.1201172,0.0400391,0.1201172,0.1201172
		v0.3896484c0,0.0800781-0.0400391,0.1201172-0.1201172,0.1201172h-1.0693359v2.5380859H241.3105469z M239.5419922,433.8515625
		v-2.5380859H237.8125v2.5380859H239.5419922z"/>
	<path fill="#4D4D4D" d="M247.0810547,428.8349609c0.0800781,0,0.1298828,0.0400391,0.1298828,0.1201172v0.4189453
		c0,0.0898438-0.0498047,0.1298828-0.1298828,0.1298828h-3.5576172l-0.1601563,2.3994141
		c0.3701172-0.0107422,0.7792969-0.0205078,1.0097656-0.0205078c2.2587891,0,2.9882813,0.4003906,3.0078125,2.1289063v0.2402344
		c-0.0195313,1.7089844-0.7490234,2.1083984-3.0078125,2.1083984c-0.3798828,0-1.1699219-0.0097656-1.6689453-0.0400391
		c-0.0800781,0-0.1201172-0.0400391-0.1201172-0.0800781v-0.4697266c0-0.0595703,0.0400391-0.0800781,0.1201172-0.0800781h1.7783203
		c1.5498047,0,2.1289063-0.2792969,2.1289063-1.4287109v-0.2294922c-0.0097656-1.1699219-0.5693359-1.4794922-2.1289063-1.4794922
		h-1.7783203c-0.0800781,0-0.1201172-0.0302734-0.1201172-0.0800781v-0.4794922l0.1796875-3.0185547
		c0-0.0898438,0.0498047-0.1396484,0.1503906-0.1396484H247.0810547z"/>
	<path fill="#4D4D4D" d="M253.0712891,428.8349609c0.0800781,0,0.1298828,0.0292969,0.1298828,0.1201172v0.3193359
		c0,0.0800781-0.0302734,0.1298828-0.0595703,0.1894531l-3.4082031,6.7568359
		c-0.0302734,0.0595703-0.0800781,0.0898438-0.1503906,0.0898438h-0.5791016c-0.1103516,0-0.1308594-0.0703125-0.0908203-0.1503906
		l3.3486328-6.65625h-3.9980469c-0.0996094,0-0.1396484-0.0400391-0.1396484-0.1191406v-0.4296875
		c0-0.0908203,0.0400391-0.1201172,0.1396484-0.1201172H253.0712891z"/>
	<path fill="#4D4D4D" d="M256.4511719,428.8349609c0.1005859,0,0.1298828,0.0595703,0.0898438,0.1494141l-1.5283203,3.0087891
		c0.2890625-0.1005859,0.609375-0.140625,1.0585938-0.140625c1.7294922,0,2.5585938,0.5498047,2.5585938,2.1289063v0.25
		c0,1.5791016-0.8095703,2.1289063-2.5585938,2.1289063c-1.7285156,0-2.5683594-0.5390625-2.5683594-2.1386719v-0.2197266
		c0-0.5498047,0.0498047-0.8300781,0.2402344-1.2197266l1.96875-3.8671875
		c0.0400391-0.0605469,0.0898438-0.0800781,0.1601563-0.0800781H256.4511719z M254.2724609,434.0117188v0.1904297
		c0,1.1191406,0.5996094,1.4882813,1.7988281,1.4882813c1.2099609,0,1.7998047-0.3789063,1.7998047-1.4785156v-0.2001953
		c0-1.1191406-0.5996094-1.4794922-1.7998047-1.4794922C254.8720703,432.5322266,254.2724609,432.8925781,254.2724609,434.0117188z"
		/>
	<path fill="#4D4D4D" d="M261.4726563,428.8349609c0.109375,0,0.1191406,0.0595703,0.0996094,0.1494141l-1.4091797,4.6875h2.6787109
		v-2.0986328c0-0.0703125,0.0292969-0.1298828,0.0898438-0.1503906l0.5195313-0.2099609
		c0.0996094-0.0390625,0.1601563-0.0195313,0.1601563,0.0800781v2.3789063h1.3095703
		c0.0996094,0,0.1396484,0.0400391,0.1396484,0.1201172v0.4199219c0,0.0996094-0.0400391,0.1298828-0.1396484,0.1298828h-1.3095703
		v1.8388672c0,0.0898438-0.0498047,0.1298828-0.1298828,0.1298828h-0.5097656c-0.0800781,0-0.1298828-0.0400391-0.1298828-0.1298828
		v-1.8388672h-3.3779297c-0.0800781,0-0.1298828-0.0302734-0.1298828-0.1298828v-0.2197266
		c0-0.1005859,0.0292969-0.2001953,0.0693359-0.3300781l1.4091797-4.7470703
		c0.0302734-0.0703125,0.0703125-0.0800781,0.1601563-0.0800781H261.4726563z"/>
	<path fill="#4D4D4D" d="M268.7314453,428.8349609c0.1005859,0,0.1298828,0.0595703,0.0908203,0.1494141l-1.5292969,3.0087891
		c0.2890625-0.1005859,0.609375-0.140625,1.0585938-0.140625c1.7294922,0,2.5585938,0.5498047,2.5585938,2.1289063v0.25
		c0,1.5791016-0.8085938,2.1289063-2.5585938,2.1289063c-1.7285156,0-2.5683594-0.5390625-2.5683594-2.1386719v-0.2197266
		c0-0.5498047,0.0498047-0.8300781,0.2402344-1.2197266l1.96875-3.8671875
		c0.0400391-0.0605469,0.0898438-0.0800781,0.1601563-0.0800781H268.7314453z M266.5527344,434.0117188v0.1904297
		c0,1.1191406,0.5996094,1.4882813,1.7988281,1.4882813c1.2099609,0,1.7998047-0.3789063,1.7998047-1.4785156v-0.2001953
		c0-1.1191406-0.5996094-1.4794922-1.7998047-1.4794922C267.1523438,432.5322266,266.5527344,432.8925781,266.5527344,434.0117188z"
		/>
	<path fill="#4D4D4D" d="M276.1708984,433.421875v0.2900391c0,0.1699219-0.0292969,0.25-0.3095703,0.25h-3.2685547
		c0.0302734,1.3896484,0.2802734,1.7587891,1.4492188,1.7587891h1.5693359c0.0800781,0,0.1298828,0.0400391,0.1298828,0.1298828
		v0.3095703c0,0.0703125-0.0400391,0.1201172-0.1201172,0.1308594c-0.4697266,0.0498047-1.0693359,0.0693359-1.5791016,0.0693359
		c-1.8085938,0-2.1787109-0.5498047-2.1787109-2.7587891c0-2.2080078,0.3701172-2.7480469,2.1787109-2.7480469
		C275.7519531,430.8535156,276.1513672,431.3632813,276.1708984,433.421875z M272.5927734,433.3125h2.8486328
		c-0.0195313-1.4794922-0.25-1.8193359-1.3994141-1.8193359C272.8330078,431.4931641,272.6132813,431.8525391,272.5927734,433.3125z
		"/>
</g>
<g>
	<path fill="#4D4D4D" d="M292.4707031,433.8515625c0.0800781,0,0.1298828,0.0400391,0.1298828,0.1298828v0.3798828
		c0,0.0898438-0.0498047,0.1298828-0.1298828,0.1298828h-1.0693359v1.6894531c0,0.0898438-0.0498047,0.1298828-0.1298828,0.1298828
		h-0.4394531c-0.0800781,0-0.1298828-0.0400391-0.1298828-0.1298828v-1.6894531h-1.7294922v1.6894531
		c0,0.0898438-0.0400391,0.1298828-0.1298828,0.1298828h-0.4394531c-0.0800781,0-0.1201172-0.0400391-0.1201172-0.1298828
		v-1.6894531h-0.9794922c-0.0898438,0-0.1298828-0.0400391-0.1298828-0.1298828v-0.3798828
		c0-0.0898438,0.0400391-0.1298828,0.1298828-0.1298828h0.9794922v-2.5380859h-0.9892578
		c-0.0800781,0-0.1201172-0.0400391-0.1201172-0.1201172v-0.3896484c0-0.0800781,0.0400391-0.1201172,0.1201172-0.1201172h0.9892578
		v-1.7285156c0-0.0800781,0.0400391-0.1201172,0.1201172-0.1201172h0.4394531c0.0898438,0,0.1298828,0.0400391,0.1298828,0.1201172
		v1.7285156h1.7294922v-1.7285156c0-0.0800781,0.0498047-0.1201172,0.1298828-0.1201172h0.4394531
		c0.0800781,0,0.1298828,0.0400391,0.1298828,0.1201172v1.7285156h1.0693359c0.0800781,0,0.1201172,0.0400391,0.1201172,0.1201172
		v0.3896484c0,0.0800781-0.0400391,0.1201172-0.1201172,0.1201172h-1.0693359v2.5380859H292.4707031z M290.7021484,433.8515625
		v-2.5380859h-1.7294922v2.5380859H290.7021484z"/>
	<path fill="#4D4D4D" d="M297.6416016,432.4023438v3.4980469c0,0.0800781,0.0097656,0.1904297-0.1796875,0.2597656
		c-0.3095703,0.1201172-1.2392578,0.2001953-2.1289063,0.2001953c-1.3095703,0-1.8291016-0.3300781-1.8291016-1.5791016
		c0-1.0996094,0.5595703-1.4794922,1.6689453-1.4794922h1.7490234v-0.7890625c0-0.75-0.4990234-1.0195313-1.4785156-1.0195313
		H294.09375c-0.0996094,0-0.1298828-0.0302734-0.1298828-0.1298828v-0.2802734c0-0.0996094,0.0302734-0.1191406,0.1201172-0.1396484
		c0.5498047-0.0800781,0.9990234-0.0898438,1.359375-0.0898438
		C296.8222656,430.8535156,297.6416016,431.2431641,297.6416016,432.4023438z M295.1728516,433.9316406
		c-0.6494141,0-0.9492188,0.2197266-0.9492188,0.8496094c0,0.7392578,0.3300781,0.9492188,1.2695313,0.9492188
		c0.3095703,0,1.0087891-0.0195313,1.4287109-0.1298828v-1.6689453H295.1728516z"/>
	<path fill="#4D4D4D" d="M299.6933594,428.8349609c0.0800781,0,0.1298828,0.0498047,0.1298828,0.1298828v1.9482422
		c0.3505859-0.0400391,0.8095703-0.0595703,1.3798828-0.0595703c1.9091797,0,2.2587891,0.5400391,2.2587891,2.7480469
		c0,2.2089844-0.3398438,2.7587891-2.1992188,2.7587891c-0.6894531,0-1.109375-0.0195313-2.0283203-0.1601563
		c-0.1005859-0.0097656-0.140625-0.0498047-0.140625-0.1494141v-7.0859375c0-0.0800781,0.0507813-0.1298828,0.1298828-0.1298828
		H299.6933594z M299.8232422,431.4931641v4.1279297c0.5205078,0.0693359,1.0097656,0.0996094,1.4394531,0.0996094
		c1.3193359,0,1.4794922-0.4296875,1.4794922-2.1289063c0-1.6884766-0.1699219-2.0986328-1.5390625-2.0986328H299.8232422z"/>
	<path fill="#4D4D4D" d="M305.3730469,428.8349609c0.0800781,0,0.1298828,0.0498047,0.1298828,0.1298828v1.9482422
		c0.3505859-0.0400391,0.8095703-0.0595703,1.3798828-0.0595703c1.9091797,0,2.2587891,0.5400391,2.2587891,2.7480469
		c0,2.2089844-0.3398438,2.7587891-2.1992188,2.7587891c-0.6894531,0-1.109375-0.0195313-2.0283203-0.1601563
		c-0.1005859-0.0097656-0.140625-0.0498047-0.140625-0.1494141v-7.0859375c0-0.0800781,0.0507813-0.1298828,0.1298828-0.1298828
		H305.3730469z M305.5029297,431.4931641v4.1279297c0.5205078,0.0693359,1.0097656,0.0996094,1.4394531,0.0996094
		c1.3193359,0,1.4794922-0.4296875,1.4794922-2.1289063c0-1.6884766-0.1699219-2.0986328-1.5390625-2.0986328H305.5029297z"/>
	<path fill="#4D4D4D" d="M314.2412109,432.4023438v3.4980469c0,0.0800781,0.0097656,0.1904297-0.1796875,0.2597656
		c-0.3095703,0.1201172-1.2392578,0.2001953-2.1289063,0.2001953c-1.3095703,0-1.8291016-0.3300781-1.8291016-1.5791016
		c0-1.0996094,0.5595703-1.4794922,1.6689453-1.4794922h1.7490234v-0.7890625c0-0.75-0.4990234-1.0195313-1.4785156-1.0195313
		h-1.3496094c-0.0996094,0-0.1298828-0.0302734-0.1298828-0.1298828v-0.2802734
		c0-0.0996094,0.0302734-0.1191406,0.1201172-0.1396484c0.5498047-0.0800781,0.9990234-0.0898438,1.359375-0.0898438
		C313.421875,430.8535156,314.2412109,431.2431641,314.2412109,432.4023438z M311.7724609,433.9316406
		c-0.6494141,0-0.9492188,0.2197266-0.9492188,0.8496094c0,0.7392578,0.3300781,0.9492188,1.2695313,0.9492188
		c0.3095703,0,1.0087891-0.0195313,1.4287109-0.1298828v-1.6689453H311.7724609z"/>
	<path fill="#4D4D4D" d="M319.2216797,430.9238281c0.0800781,0.0097656,0.1201172,0.0595703,0.1201172,0.1298828v0.3095703
		c0,0.0898438-0.0498047,0.1298828-0.1298828,0.1298828h-1.4697266c-1.2988281,0-1.4990234,0.4199219-1.4990234,2.1083984
		c0,1.6894531,0.2001953,2.1191406,1.4990234,2.1191406h1.4697266c0.0800781,0,0.1298828,0.0400391,0.1298828,0.1298828v0.3095703
		c0,0.0703125-0.0400391,0.1201172-0.1201172,0.1308594c-0.4697266,0.0498047-1.0996094,0.0693359-1.4794922,0.0693359
		c-1.8388672,0-2.21875-0.5498047-2.21875-2.7587891c0-2.1982422,0.3798828-2.7480469,2.21875-2.7480469
		C318.1220703,430.8535156,318.7519531,430.8632813,319.2216797,430.9238281z"/>
	<path fill="#4D4D4D" d="M324.8115234,430.7138672v0.1992188c0,0.8798828-0.3398438,1.4697266-0.9501953,1.6494141
		c0.6201172,0.2001953,0.9501953,0.7792969,0.9501953,1.6494141v0.1699219c0,1.6191406-0.7099609,1.9785156-3.0087891,1.9785156
		c-0.3798828,0-0.9492188-0.0195313-1.4492188-0.0595703c-0.0693359-0.0097656-0.1201172-0.0097656-0.1201172-0.0498047v-0.4902344
		c0-0.0498047,0.0507813-0.0703125,0.1298828-0.0703125h1.5097656c1.6591797,0,2.1689453-0.2490234,2.1689453-1.3291016v-0.109375
		c-0.0107422-1-0.3701172-1.3496094-1.4892578-1.3496094h-1.8291016c-0.0898438,0-0.1103516-0.0302734-0.1103516-0.0996094
		v-0.4599609c0-0.0703125,0.0205078-0.0996094,0.1103516-0.0996094h1.8193359c1.1191406,0,1.4990234-0.3398438,1.4990234-1.3701172
		v-0.1796875c0-1.0791016-0.5996094-1.2392578-2.2392578-1.2392578h-1.4394531
		c-0.0791016,0-0.1298828-0.0195313-0.1298828-0.0693359v-0.4697266c0-0.0507813,0.0507813-0.0703125,0.1201172-0.0703125
		c0.5-0.0498047,1.0693359-0.0595703,1.4492188-0.0595703C324.0615234,428.7851563,324.8115234,429.0947266,324.8115234,430.7138672
		z"/>
</g>
<g>
	<path fill="#4D4D4D" d="M348.3457031,433.8515625c0.0800781,0,0.1298828,0.0400391,0.1298828,0.1298828v0.3798828
		c0,0.0898438-0.0498047,0.1298828-0.1298828,0.1298828h-1.0693359v1.6894531c0,0.0898438-0.0498047,0.1298828-0.1298828,0.1298828
		h-0.4394531c-0.0800781,0-0.1298828-0.0400391-0.1298828-0.1298828v-1.6894531h-1.7294922v1.6894531
		c0,0.0898438-0.0400391,0.1298828-0.1298828,0.1298828h-0.4394531c-0.0800781,0-0.1201172-0.0400391-0.1201172-0.1298828
		v-1.6894531h-0.9794922c-0.0898438,0-0.1298828-0.0400391-0.1298828-0.1298828v-0.3798828
		c0-0.0898438,0.0400391-0.1298828,0.1298828-0.1298828h0.9794922v-2.5380859h-0.9892578
		c-0.0800781,0-0.1201172-0.0400391-0.1201172-0.1201172v-0.3896484c0-0.0800781,0.0400391-0.1201172,0.1201172-0.1201172h0.9892578
		v-1.7285156c0-0.0800781,0.0400391-0.1201172,0.1201172-0.1201172h0.4394531c0.0898438,0,0.1298828,0.0400391,0.1298828,0.1201172
		v1.7285156h1.7294922v-1.7285156c0-0.0800781,0.0498047-0.1201172,0.1298828-0.1201172h0.4394531
		c0.0800781,0,0.1298828,0.0400391,0.1298828,0.1201172v1.7285156h1.0693359c0.0800781,0,0.1201172,0.0400391,0.1201172,0.1201172
		v0.3896484c0,0.0800781-0.0400391,0.1201172-0.1201172,0.1201172h-1.0693359v2.5380859H348.3457031z M346.5771484,433.8515625
		v-2.5380859h-1.7294922v2.5380859H346.5771484z"/>
	<path fill="#4D4D4D" d="M355.8056641,428.984375v0.3095703c0,0.0800781-0.0400391,0.1308594-0.1201172,0.1308594h-0.5693359
		c-0.5,0-0.8798828,0.0195313-0.8798828,0.5595703v0.9189453h1.3496094c0.0800781,0,0.1298828,0.0498047,0.109375,0.1503906
		l-0.0595703,0.3398438c-0.0205078,0.0800781-0.0605469,0.109375-0.1396484,0.109375h-1.2597656v4.6777344
		c0,0.0898438-0.0400391,0.1298828-0.1298828,0.1298828h-0.4697266c-0.0800781,0-0.1298828-0.0400391-0.1298828-0.1298828
		v-4.6777344h-2.6787109v4.6777344c0,0.0898438-0.0400391,0.1298828-0.1298828,0.1298828h-0.4697266
		c-0.0800781,0-0.1201172-0.0400391-0.1201172-0.1298828v-4.6777344h-0.7490234
		c-0.0800781,0-0.1298828-0.0400391-0.1298828-0.1201172v-0.3496094c0-0.0800781,0.0498047-0.1298828,0.1298828-0.1298828h0.7490234
		V429.84375c0-1.0488281,0.9296875-1.0693359,1.3496094-1.0693359c0.2792969,0,0.6396484,0.0400391,0.8496094,0.0800781
		c0.0800781,0.0097656,0.109375,0.0498047,0.109375,0.1298828v0.3095703c0,0.0800781-0.0400391,0.1308594-0.1191406,0.1308594
		h-0.5898438c-0.5,0-0.8798828,0.0195313-0.8798828,0.5595703v0.9189453h2.6787109V429.84375
		c0-1.0488281,0.9394531-1.0693359,1.359375-1.0693359c0.2792969,0,0.6191406,0.0400391,0.8291016,0.0800781
		C355.7753906,428.8642578,355.8056641,428.9042969,355.8056641,428.984375z"/>
	<path fill="#4D4D4D" d="M362.6757813,428.984375v0.3095703c0,0.0800781-0.0400391,0.1308594-0.1201172,0.1308594h-0.5693359
		c-0.5,0-0.8798828,0.0195313-0.8798828,0.5595703v0.9189453h1.3496094c0.0800781,0,0.1298828,0.0498047,0.109375,0.1503906
		l-0.0595703,0.3398438c-0.0205078,0.0800781-0.0605469,0.109375-0.1396484,0.109375h-1.2597656v4.6777344
		c0,0.0898438-0.0400391,0.1298828-0.1298828,0.1298828h-0.4697266c-0.0800781,0-0.1298828-0.0400391-0.1298828-0.1298828
		v-4.6777344h-2.6787109v4.6777344c0,0.0898438-0.0400391,0.1298828-0.1298828,0.1298828h-0.4697266
		c-0.0800781,0-0.1201172-0.0400391-0.1201172-0.1298828v-4.6777344h-0.7490234
		c-0.0800781,0-0.1298828-0.0400391-0.1298828-0.1201172v-0.3496094c0-0.0800781,0.0498047-0.1298828,0.1298828-0.1298828h0.7490234
		V429.84375c0-1.0488281,0.9296875-1.0693359,1.3496094-1.0693359c0.2792969,0,0.6396484,0.0400391,0.8496094,0.0800781
		c0.0800781,0.0097656,0.109375,0.0498047,0.109375,0.1298828v0.3095703c0,0.0800781-0.0400391,0.1308594-0.1191406,0.1308594
		h-0.5898438c-0.5,0-0.8798828,0.0195313-0.8798828,0.5595703v0.9189453h2.6787109V429.84375
		c0-1.0488281,0.9394531-1.0693359,1.359375-1.0693359c0.2792969,0,0.6191406,0.0400391,0.8291016,0.0800781
		C362.6455078,428.8642578,362.6757813,428.9042969,362.6757813,428.984375z"/>
	<path fill="#4D4D4D" d="M369.5458984,428.984375v0.3095703c0,0.0800781-0.0400391,0.1308594-0.1201172,0.1308594h-0.5693359
		c-0.5,0-0.8798828,0.0195313-0.8798828,0.5595703v0.9189453h1.3496094c0.0800781,0,0.1298828,0.0498047,0.109375,0.1503906
		l-0.0595703,0.3398438c-0.0205078,0.0800781-0.0605469,0.109375-0.1396484,0.109375h-1.2597656v4.6777344
		c0,0.0898438-0.0400391,0.1298828-0.1298828,0.1298828h-0.4697266c-0.0800781,0-0.1298828-0.0400391-0.1298828-0.1298828
		v-4.6777344h-2.6787109v4.6777344c0,0.0898438-0.0400391,0.1298828-0.1298828,0.1298828H363.96875
		c-0.0800781,0-0.1201172-0.0400391-0.1201172-0.1298828v-4.6777344h-0.7490234
		c-0.0800781,0-0.1298828-0.0400391-0.1298828-0.1201172v-0.3496094c0-0.0800781,0.0498047-0.1298828,0.1298828-0.1298828h0.7490234
		V429.84375c0-1.0488281,0.9296875-1.0693359,1.3496094-1.0693359c0.2792969,0,0.6396484,0.0400391,0.8496094,0.0800781
		c0.0800781,0.0097656,0.109375,0.0498047,0.109375,0.1298828v0.3095703c0,0.0800781-0.0400391,0.1308594-0.1191406,0.1308594
		h-0.5898438c-0.5,0-0.8798828,0.0195313-0.8798828,0.5595703v0.9189453h2.6787109V429.84375
		c0-1.0488281,0.9394531-1.0693359,1.359375-1.0693359c0.2792969,0,0.6191406,0.0400391,0.8291016,0.0800781
		C369.515625,428.8642578,369.5458984,428.9042969,369.5458984,428.984375z"/>
</g>
</svg>
