<svg xmlns="http://www.w3.org/2000/svg" viewBox="0 0 512 512"><g fill="#4d4d4d"><path d="M34.133 435.2H102.4v42.667H34.133V435.2zM477.867 477.867H409.6V435.2h68.267v42.667z"/></g><path d="M418.133 34.133H486.4c9.429 0 17.067 7.637 17.067 17.067v375.467c0 9.429-7.637 17.067-17.067 17.067H25.6c-9.429 0-17.067-7.637-17.067-17.067V51.2c0-9.429 7.637-17.067 17.067-17.067h392.533z" fill="#666"/><path d="M59.733 85.333h392.533v307.2H59.733v-307.2z" fill="#999"/><path d="M256 145.067c-51.84 0-93.867 42.027-93.867 93.867S204.16 332.8 256 332.8s93.867-42.027 93.867-93.867S307.84 145.067 256 145.067zm0 153.6c-32.99 0-59.733-26.743-59.733-59.733S223.01 179.2 256 179.2s59.733 26.743 59.733 59.733S288.99 298.667 256 298.667z" fill="#666"/><g fill="#fbb03b"><path d="M42.667 119.467H76.8v68.267H42.667v-68.267zM42.667 290.133H76.8V358.4H42.667v-68.267z"/><circle cx="256" cy="238.933" r="25.6"/></g><path d="M486.4 25.6H25.6C11.46 25.6 0 37.06 0 51.2v375.467c0 14.14 11.46 25.6 25.6 25.6v25.6a8.536 8.536 0 008.533 8.533H102.4a8.536 8.536 0 008.533-8.533v-25.6h290.133v25.6a8.536 8.536 0 008.533 8.533h68.267a8.536 8.536 0 008.533-8.533v-25.6c14.14 0 25.6-11.46 25.6-25.6V51.2C512 37.06 500.54 25.6 486.4 25.6zM93.867 469.333h-51.2v-17.067h51.2v17.067zm375.466 0h-51.2v-17.067h51.2v17.067zm25.6-42.666a8.536 8.536 0 01-8.533 8.533H25.6a8.536 8.536 0 01-8.533-8.533V51.2a8.536 8.536 0 018.533-8.533h460.8a8.536 8.536 0 018.533 8.533v375.467z"/><path d="M452.267 76.8H59.733a8.536 8.536 0 00-8.533 8.533v25.6h-8.533a8.536 8.536 0 00-8.533 8.533v68.267a8.536 8.536 0 008.533 8.533H51.2V281.6h-8.533a8.536 8.536 0 00-8.533 8.533V358.4a8.536 8.536 0 008.533 8.533H51.2v25.6a8.536 8.536 0 008.533 8.533h392.533a8.536 8.536 0 008.533-8.533v-307.2c.001-4.71-3.822-8.533-8.532-8.533zM51.2 128h17.067v51.2H51.2V128zm0 170.667h17.067v51.2H51.2v-51.2zM443.733 384H68.267v-17.067H76.8a8.536 8.536 0 008.533-8.533v-68.267A8.536 8.536 0 0076.8 281.6h-8.533v-85.333H76.8a8.536 8.536 0 008.533-8.533v-68.267a8.536 8.536 0 00-8.533-8.533h-8.533V93.867h375.467V384z"/><path d="M256 221.867c9.429 0 17.067 7.637 17.067 17.067 0 9.429-7.637 17.067-17.067 17.067v17.067c18.85 0 34.133-15.283 34.133-34.133S274.85 204.8 256 204.8s-34.133 15.283-34.133 34.133h17.067c-.001-9.429 7.637-17.066 17.066-17.066z"/><path d="M177.877 304.99l-12.382 12.382 12.066 12.066 12.382-12.382a101.88 101.88 0 0057.523 23.842V358.4h17.067v-17.502a101.88 101.88 0 0057.523-23.842l12.382 12.382 12.066-12.066-12.382-12.382a101.854 101.854 0 0023.842-57.523h17.502V230.4h-17.502a101.854 101.854 0 00-23.842-57.523l12.382-12.382-12.066-12.066-12.382 12.382a101.88 101.88 0 00-57.523-23.842v-17.502h-17.067v17.502a101.88 101.88 0 00-57.523 23.842l-12.382-12.382-12.066 12.066 12.382 12.382a101.854 101.854 0 00-23.842 57.523h-17.502v17.067h17.502a101.87 101.87 0 0023.842 57.523zm-6.775-57.523h17.22a67.857 67.857 0 0013.815 33.28l-12.169 12.169a84.87 84.87 0 01-18.866-45.449zM256 187.733c28.279 0 51.2 22.921 51.2 51.2s-22.921 51.2-51.2 51.2c-28.279 0-51.2-22.921-51.2-51.2.026-28.262 22.938-51.174 51.2-51.2zm-53.965 117.231l12.151-12.169a67.839 67.839 0 0033.28 13.815v17.22a84.853 84.853 0 01-45.431-18.866zm62.498 18.867v-17.22a67.857 67.857 0 0033.28-13.815l12.177 12.169a84.882 84.882 0 01-45.457 18.866zm57.498-30.933l-12.169-12.151a67.839 67.839 0 0013.815-33.28h17.22a84.796 84.796 0 01-18.866 45.431zm18.867-62.498h-17.22a67.857 67.857 0 00-13.815-33.28l12.169-12.169a84.868 84.868 0 0118.866 45.449zm-30.933-57.498l-12.151 12.169a67.839 67.839 0 00-33.28-13.815v-17.22a84.869 84.869 0 0145.431 18.866zm-62.498-18.867v17.22a67.857 67.857 0 00-33.28 13.815l-12.177-12.169a84.89 84.89 0 0145.457-18.866zm-57.498 30.934l12.169 12.151a67.839 67.839 0 00-13.815 33.28h-17.22a84.796 84.796 0 0118.866-45.431zM102.4 349.867h17.067v17.067H102.4v-17.067zM102.4 110.933h17.067V128H102.4v-17.067zM409.6 110.933h17.067V128H409.6v-17.067zM409.6 349.867h17.067v17.067H409.6v-17.067z"/></svg>